<svg width="460" height="303" viewBox="0 0 460 303" xmlns="http://www.w3.org/2000/svg" xmlns:xlink="http://www.w3.org/1999/xlink"><title>outline</title><defs><path id="path-1" d="M0 0h80v1H0z"/></defs><g id="Page-1" fill="none" fill-rule="evenodd"><g id="duffer-bros-desktop-header"><g id="outline"><g id="caption"><path d="M2.814 279h1.26l1.344-4.774c.406-1.456.868-3.794.868-3.794h.042s.448 2.338.84 3.794L8.47 279h1.26l2.478-10.094h-1.204l-1.148 4.914c-.35 1.47-.714 3.794-.714 3.794H9.1s-.406-2.282-.798-3.71l-1.386-4.998H5.782l-1.4 4.998c-.406 1.428-.826 3.71-.826 3.71h-.042s-.378-2.324-.728-3.794l-1.148-4.914H.308L2.814 279zm13.65.14c-2.128 0-3.36-1.302-3.36-3.514v-.672c0-2.198 1.344-3.57 3.374-3.57 2.1 0 3.346 1.33 3.346 3.528v.658c0 2.212-1.344 3.57-3.36 3.57zm.028-1.036c1.274 0 2.016-.854 2.016-2.394v-.826c0-1.876-.91-2.45-2.058-2.45-1.302 0-2.044.882-2.044 2.394v.826c0 1.89.938 2.45 2.086 2.45zm4.97.896h1.26v-5.782c.518-.35 1.316-.63 2.002-.63.126 0 .378.014.56.056v-1.148c-.07-.028-.266-.056-.462-.056-.784 0-1.666.462-2.086.966h-.07v-.882h-1.204V279zm7.77.14c-1.414 0-3.038-.812-3.038-3.43v-.616c0-2.604 1.372-3.71 3.276-3.71.882 0 1.484.238 1.876.462v-3.612h1.26V279h-1.064l-.126-.602h-.07c-.434.448-1.134.742-2.114.742zm.406-1.036c.812 0 1.386-.336 1.708-.602v-4.578c-.322-.252-.994-.448-1.722-.448-1.33 0-2.128.63-2.128 2.436v.742c0 1.89.868 2.45 2.142 2.45zm7.042 1.022c1.61 0 2.646-.756 2.646-2.226 0-1.316-.588-1.82-2.03-2.198l-.7-.182c-.742-.196-1.064-.462-1.064-1.064 0-.658.49-.994 1.442-.994.812 0 1.568.224 1.946.392v-1.036c-.42-.21-1.022-.434-2.016-.434-1.764 0-2.576.896-2.576 2.198s.77 1.806 1.834 2.086l.7.182c.896.238 1.218.56 1.218 1.176 0 .644-.476 1.022-1.568 1.022-1.05 0-1.582-.21-2.212-.462v1.022c.616.35 1.428.518 2.38.518zm10.43.07c-.84 0-2.072-.168-2.702-.42v-10.542h1.26v3.752h.07c.56-.35 1.232-.602 2.226-.602 1.372 0 2.856.714 2.856 3.36v.784c0 2.282-1.274 3.668-3.71 3.668zm.098-1.078c1.218 0 2.31-.518 2.31-2.408v-.882c0-1.834-.686-2.352-2.156-2.352-.686 0-1.358.28-1.694.42v4.97c.308.112.798.252 1.54.252zm5.754 3.78c1.26 0 1.89-.574 2.408-2.016l3.024-8.358h-1.26l-1.092 3.234c-.406 1.19-.868 3.024-.868 3.024h-.042s-.434-1.792-.896-3.024l-1.204-3.234H51.66l2.884 7.28-.336.91c-.294.798-.798 1.12-1.47 1.12-.266 0-.532-.028-.714-.056v.896c.21.126.602.224.938.224z" id="Words-by" fill="#999"/><path d="M1.26 300v-10.094h3.136c3.01 0 4.536 1.428 4.536 4.48v.854c0 3.01-1.288 4.76-4.508 4.76H1.26zm1.302-1.134h1.89c2.226 0 3.08-.966 3.08-3.416v-1.064c0-2.59-1.092-3.346-3.248-3.346H2.562v7.826zm11.158 1.274c-2.324 0-3.514-1.4-3.514-3.57v-.63c0-2.464 1.54-3.556 3.234-3.556 2.03 0 2.996 1.176 2.996 3.388v.868h-4.928c.028 1.778.896 2.394 2.408 2.394.994 0 1.624-.21 2.296-.56v.938c-.434.336-1.274.728-2.492.728zm-.336-6.72c-.84 0-1.834.434-1.876 2.184h3.584c0-1.568-.588-2.184-1.708-2.184zm6.664 6.706c1.61 0 2.646-.756 2.646-2.226 0-1.316-.588-1.82-2.03-2.198l-.7-.182c-.742-.196-1.064-.462-1.064-1.064 0-.658.49-.994 1.442-.994.812 0 1.568.224 1.946.392v-1.036c-.42-.21-1.022-.434-2.016-.434-1.764 0-2.576.896-2.576 2.198s.77 1.806 1.834 2.086l.7.182c.896.238 1.218.56 1.218 1.176 0 .644-.476 1.022-1.568 1.022-1.05 0-1.582-.21-2.212-.462v1.022c.616.35 1.428.518 2.38.518zM24.29 300h1.26v-7.476h-1.26V300zm-.042-8.96h1.344v-1.316h-1.344v1.316zm6.048 11.942c-1.022 0-2.114-.238-2.604-.574v-.952c.364.154 1.372.448 2.366.448 1.484 0 2.366-.49 2.366-1.946v-.854h-.07c-.434.42-1.064.7-2.044.7-1.414 0-3.038-.742-3.038-3.262v-.616c0-2.52 1.372-3.542 3.276-3.542.882 0 1.484.308 1.876.574h.07l.126-.434h1.064v7.574c0 2.1-1.232 2.884-3.388 2.884zm.42-4.228c.812 0 1.386-.336 1.708-.602v-4.13c-.322-.266-.994-.532-1.722-.532-1.33 0-2.128.504-2.128 2.254v.742c0 1.82.868 2.268 2.142 2.268zM35.784 300h1.26v-6.02c.532-.238 1.288-.49 1.932-.49 1.162 0 1.442.364 1.442 1.218V300h1.26v-5.558c0-1.442-.686-2.058-2.142-2.058-.896 0-1.862.35-2.478.784h-.07v-.644h-1.204V300zm14.168.196c-.84 0-2.072-.168-2.702-.42v-10.542h1.26v3.752h.07c.56-.35 1.232-.602 2.226-.602 1.372 0 2.856.714 2.856 3.36v.784c0 2.282-1.274 3.668-3.71 3.668zm.098-1.078c1.218 0 2.31-.518 2.31-2.408v-.882c0-1.834-.686-2.352-2.156-2.352-.686 0-1.358.28-1.694.42v4.97c.308.112.798.252 1.54.252zm5.754 3.78c1.26 0 1.89-.574 2.408-2.016l3.024-8.358h-1.26l-1.092 3.234c-.406 1.19-.868 3.024-.868 3.024h-.042s-.434-1.792-.896-3.024l-1.204-3.234h-1.372l2.884 7.28-.336.91c-.294.798-.798 1.12-1.47 1.12-.266 0-.532-.028-.714-.056v.896c.21.126.602.224.938.224z" id="Design-by" fill="#999"/><path d="M63.26 279v-10.094h3.038c2.184 0 3.22.98 3.22 2.87 0 1.442-.714 2.212-1.876 2.632v.084l2.59 4.508h-1.484l-2.408-4.312h-1.778V279H63.26zm1.302-5.32h1.652c1.442 0 1.904-.588 1.904-1.876 0-1.26-.49-1.778-1.918-1.778h-1.638v3.654zm10.178 5.46c-2.324 0-3.514-1.4-3.514-3.57v-.63c0-2.464 1.54-3.556 3.234-3.556 2.03 0 2.996 1.176 2.996 3.388v.868h-4.928c.028 1.778.896 2.394 2.408 2.394.994 0 1.624-.21 2.296-.56v.938c-.434.336-1.274.728-2.492.728zm-.336-6.72c-.84 0-1.834.434-1.876 2.184h3.584c0-1.568-.588-2.184-1.708-2.184zm7.392 6.776c-.84 0-2.072-.168-2.702-.42v-10.542h1.26v3.752h.07c.56-.35 1.232-.602 2.226-.602 1.372 0 2.856.714 2.856 3.36v.784c0 2.282-1.274 3.668-3.71 3.668zm.098-1.078c1.218 0 2.31-.518 2.31-2.408v-.882c0-1.834-.686-2.352-2.156-2.352-.686 0-1.358.28-1.694.42v4.97c.308.112.798.252 1.54.252zm8.344 1.022c-2.324 0-3.514-1.4-3.514-3.57v-.63c0-2.464 1.54-3.556 3.234-3.556 2.03 0 2.996 1.176 2.996 3.388v.868h-4.928c.028 1.778.896 2.394 2.408 2.394.994 0 1.624-.21 2.296-.56v.938c-.434.336-1.274.728-2.492.728zm-.336-6.72c-.84 0-1.834.434-1.876 2.184h3.584c0-1.568-.588-2.184-1.708-2.184zm7.658 6.72c1.022 0 1.68-.266 2.17-.588v-1.022c-.378.182-1.036.518-2.03.518-1.498 0-2.268-.672-2.268-2.45v-.812c0-1.554.812-2.31 2.114-2.31.966 0 1.428.196 2.086.462v-1.064c-.476-.294-1.036-.49-2.002-.49-1.932 0-3.5 1.092-3.5 3.598v.658c0 2.366 1.33 3.5 3.43 3.5zm6.58 0c1.022 0 1.68-.266 2.17-.588v-1.022c-.378.182-1.036.518-2.03.518-1.498 0-2.268-.672-2.268-2.45v-.812c0-1.554.812-2.31 2.114-2.31.966 0 1.428.196 2.086.462v-1.064c-.476-.294-1.036-.49-2.002-.49-1.932 0-3.5 1.092-3.5 3.598v.658c0 2.366 1.33 3.5 3.43 3.5zm5.418 0c-1.33 0-2.282-.672-2.282-2.114 0-1.302.798-2.002 2.226-2.17l1.946-.224v-.728c0-1.134-.49-1.414-1.806-1.414-.714 0-1.302.112-1.75.224v-.924c.658-.266 1.358-.406 2.254-.406 1.638 0 2.562.7 2.562 2.198V279H111.7l-.14-.63h-.084c-.35.42-.952.77-1.918.77zm.322-.98c.63 0 1.26-.224 1.568-.518v-2.058l-1.624.168c-.812.084-1.246.42-1.246 1.232 0 .798.518 1.176 1.302 1.176zm8.624.84h1.19v-5.348c0-1.358-.14-3.486-.14-3.486h.042s.91 1.932 1.596 3.122l3.29 5.712h1.358v-10.094h-1.19v4.83c0 1.4.14 3.584.14 3.584h-.042s-.938-1.932-1.624-3.122l-3.08-5.292h-1.54V279zm9.688 0h1.26v-7.476h-1.26V279zm-.042-8.96h1.344v-1.316h-1.344v1.316zm6.412 9.1c1.022 0 1.68-.266 2.17-.588v-1.022c-.378.182-1.036.518-2.03.518-1.498 0-2.268-.672-2.268-2.45v-.812c0-1.554.812-2.31 2.114-2.31.966 0 1.428.196 2.086.462v-1.064c-.476-.294-1.036-.49-2.002-.49-1.932 0-3.5 1.092-3.5 3.598v.658c0 2.366 1.33 3.5 3.43 3.5zm3.612-.14h1.26v-6.02c.532-.238 1.288-.49 1.932-.49 1.162 0 1.442.364 1.442 1.218V279h1.26v-5.558c0-1.442-.686-2.058-2.142-2.058-.896 0-1.82.336-2.422.756h-.07v-3.906h-1.26V279zm10.836.14c-2.128 0-3.36-1.302-3.36-3.514v-.672c0-2.198 1.344-3.57 3.374-3.57 2.1 0 3.346 1.33 3.346 3.528v.658c0 2.212-1.344 3.57-3.36 3.57zm.028-1.036c1.274 0 2.016-.854 2.016-2.394v-.826c0-1.876-.91-2.45-2.058-2.45-1.302 0-2.044.882-2.044 2.394v.826c0 1.89.938 2.45 2.086 2.45zm6.706.98c.616 0 .896-.14 1.19-.266v-.896c-.294.07-.616.112-.854.112-.504 0-.756-.168-.756-.882v-8.918h-1.274v9.072c0 1.33.672 1.778 1.694 1.778zm4.438.042c1.61 0 2.646-.756 2.646-2.226 0-1.316-.588-1.82-2.03-2.198l-.7-.182c-.742-.196-1.064-.462-1.064-1.064 0-.658.49-.994 1.442-.994.812 0 1.568.224 1.946.392v-1.036c-.42-.21-1.022-.434-2.016-.434-1.764 0-2.576.896-2.576 2.198s.77 1.806 1.834 2.086l.7.182c.896.238 1.218.56 1.218 1.176 0 .644-.476 1.022-1.568 1.022-1.05 0-1.582-.21-2.212-.462v1.022c.616.35 1.428.518 2.38.518zm7.098.014c-2.128 0-3.36-1.302-3.36-3.514v-.672c0-2.198 1.344-3.57 3.374-3.57 2.1 0 3.346 1.33 3.346 3.528v.658c0 2.212-1.344 3.57-3.36 3.57zm.028-1.036c1.274 0 2.016-.854 2.016-2.394v-.826c0-1.876-.91-2.45-2.058-2.45-1.302 0-2.044.882-2.044 2.394v.826c0 1.89.938 2.45 2.086 2.45zm4.97.896h1.26v-6.02c.532-.238 1.288-.49 1.932-.49 1.162 0 1.442.364 1.442 1.218V279h1.26v-5.558c0-1.442-.686-2.058-2.142-2.058-.896 0-1.862.35-2.478.784h-.07v-.644h-1.204V279z" id="Rebecca-Nicholson" fill="#FFF"/><path d="M66.26 300h1.302v-4.452h3.444v-1.12h-3.444v-3.402h4.466v-1.12H66.26V300zm7.406 0h1.26v-5.782c.518-.35 1.316-.63 2.002-.63.126 0 .378.014.56.056v-1.148c-.07-.028-.266-.056-.462-.056-.784 0-1.666.462-2.086.966h-.07v-.882h-1.204V300zm6.958.14c-1.33 0-2.282-.672-2.282-2.114 0-1.302.798-2.002 2.226-2.17l1.946-.224v-.728c0-1.134-.49-1.414-1.806-1.414-.714 0-1.302.112-1.75.224v-.924c.658-.266 1.358-.406 2.254-.406 1.638 0 2.562.7 2.562 2.198V300h-1.008l-.14-.63h-.084c-.35.42-.952.77-1.918.77zm.322-.98c.63 0 1.26-.224 1.568-.518v-2.058l-1.624.168c-.812.084-1.246.42-1.246 1.232 0 .798.518 1.176 1.302 1.176zm4.886.84h1.26v-6.02c.532-.238 1.288-.49 1.932-.49 1.162 0 1.442.364 1.442 1.218V300h1.26v-5.558c0-1.442-.686-2.058-2.142-2.058-.896 0-1.862.35-2.478.784h-.07v-.644h-1.204V300zm7.938 0h1.26v-10.766h-1.26V300zm4.354 0h1.456l-2.828-3.948 2.59-3.528h-1.358l-2.618 3.612L98.124 300zm6.524 0h1.302v-4.662h4.788V300h1.302v-10.094h-1.302v4.312h-4.788v-4.312h-1.302V300zm11.9.14c.91 0 1.652-.35 2.268-.784h.084l.126.644h1.078v-7.476h-1.274v5.978c-.518.28-1.148.532-1.904.532-1.064 0-1.358-.378-1.358-1.288v-5.222h-1.26v5.418c0 1.442.798 2.198 2.24 2.198zm7.378-.056c.616 0 .896-.14 1.19-.266v-.896c-.294.07-.616.112-.854.112-.504 0-.756-.168-.756-.882v-8.918h-1.274v9.072c0 1.33.672 1.778 1.694 1.778zm4.2 0c.616 0 .896-.14 1.19-.266v-.896c-.294.07-.616.112-.854.112-.504 0-.756-.168-.756-.882v-8.918h-1.274v9.072c0 1.33.672 1.778 1.694 1.778zm5.516.056c-2.324 0-3.514-1.4-3.514-3.57v-.63c0-2.464 1.54-3.556 3.234-3.556 2.03 0 2.996 1.176 2.996 3.388v.868h-4.928c.028 1.778.896 2.394 2.408 2.394.994 0 1.624-.21 2.296-.56v.938c-.434.336-1.274.728-2.492.728zm-.336-6.72c-.84 0-1.834.434-1.876 2.184h3.584c0-1.568-.588-2.184-1.708-2.184zm5.152 9.478c1.26 0 1.89-.574 2.408-2.016l3.024-8.358h-1.26l-1.092 3.234c-.406 1.19-.868 3.024-.868 3.024h-.042s-.434-1.792-.896-3.024l-1.204-3.234h-1.372l2.884 7.28-.336.91c-.294.798-.798 1.12-1.47 1.12-.266 0-.532-.028-.714-.056v.896c.21.126.602.224.938.224zm6.692-6.51h3.752v-1.106h-3.752v1.106zm7.364 3.71c1.932 0 2.73-1.204 2.73-2.716v-7.476h-1.316v7.434c0 1.036-.434 1.624-1.526 1.624-.756 0-1.344-.154-1.792-.322v1.064c.546.266 1.078.392 1.904.392zm7.868.042c-2.128 0-3.36-1.302-3.36-3.514v-.672c0-2.198 1.344-3.57 3.374-3.57 2.1 0 3.346 1.33 3.346 3.528v.658c0 2.212-1.344 3.57-3.36 3.57zm.028-1.036c1.274 0 2.016-.854 2.016-2.394v-.826c0-1.876-.91-2.45-2.058-2.45-1.302 0-2.044.882-2.044 2.394v.826c0 1.89.938 2.45 2.086 2.45zm4.97.896h1.26v-6.02c.532-.238 1.288-.49 1.932-.49 1.162 0 1.442.364 1.442 1.218V300h1.26v-5.558c0-1.442-.686-2.058-2.142-2.058-.896 0-1.862.35-2.478.784h-.07v-.644h-1.204V300zm10.99.14c-2.324 0-3.514-1.4-3.514-3.57v-.63c0-2.464 1.54-3.556 3.234-3.556 2.03 0 2.996 1.176 2.996 3.388v.868h-4.928c.028 1.778.896 2.394 2.408 2.394.994 0 1.624-.21 2.296-.56v.938c-.434.336-1.274.728-2.492.728zm-.336-6.72c-.84 0-1.834.434-1.876 2.184h3.584c0-1.568-.588-2.184-1.708-2.184zm6.664 6.706c1.61 0 2.646-.756 2.646-2.226 0-1.316-.588-1.82-2.03-2.198l-.7-.182c-.742-.196-1.064-.462-1.064-1.064 0-.658.49-.994 1.442-.994.812 0 1.568.224 1.946.392v-1.036c-.42-.21-1.022-.434-2.016-.434-1.764 0-2.576.896-2.576 2.198s.77 1.806 1.834 2.086l.7.182c.896.238 1.218.56 1.218 1.176 0 .644-.476 1.022-1.568 1.022-1.05 0-1.582-.21-2.212-.462v1.022c.616.35 1.428.518 2.38.518z" id="Frank-Hulley-Jones" fill="#FFF"/><g id="Rectangle-2" transform="translate(0 261)"><use fill="#E20B17" xlink:href="#path-1"/><path stroke="#E20B17" d="M.5.5h79v1H.5z"/></g></g><path d="M2.16 59.656h2.064c0-2.88.336-5.472.96-7.92h-1.2c-1.008 2.4-1.632 4.944-1.824 7.92zm21.936 25.872c4.416 0 7.104-.816 9.264-1.728l.288-7.152h-1.152l-.912 5.904c-1.776.816-4.032 1.584-7.536 1.584-8.928 0-13.104-5.712-13.104-15.984 0-9.888 4.272-15.6 13.008-15.6 3.456 0 5.76.72 7.344 1.488l.912 5.76h1.152l-.288-7.104c-1.92-.768-4.32-1.488-9.072-1.488-9.216 0-15.024 5.424-15.024 17.136 0 11.328 5.232 17.184 15.12 17.184zm24.24-.096c-5.76 0-10.992-4.224-10.992-12.48 0-8.208 5.232-12.72 10.992-12.72 5.76 0 10.992 4.32 10.992 12.528s-5.232 12.672-10.992 12.672zm0-1.344c4.704 0 9.12-3.456 9.12-11.184 0-7.824-4.416-11.328-9.12-11.328-4.752 0-9.12 3.6-9.12 11.232 0 7.728 4.416 11.28 9.12 11.28zM72 85.336c3.36 0 6.336-1.2 9.168-2.88h.144v2.592l.24.192 5.28-.48v-.96l-3.888-.336v-22.8l-.24-.192-5.28.336v1.008l3.792.336v19.152c-2.688 1.392-5.472 2.496-8.592 2.496-4.032 0-5.712-1.68-5.712-5.328V60.664l-.24-.192-5.328.336v1.008l3.84.336v16.512c0 4.32 2.208 6.672 6.816 6.672zM88.272 85h9.744v-.96l-3.984-.336V49.672l-.24-.192-5.952.48v1.008l4.416.336v32.4l-3.984.336V85zm22.032.384c-5.136 0-10.032-2.88-10.032-12.192 0-8.976 4.752-12.96 11.376-12.96 3.216 0 5.136.816 6.768 1.536V51.352l-4.464-.336v-1.008l5.952-.48.24.144v33.792l3.84.336v.96l-5.232.48-.24-.192v-2.784h-.144c-2.208 1.728-4.656 3.12-8.064 3.12zm.48-1.488c2.88 0 5.328-1.44 7.632-2.928v-17.28c-1.824-1.2-3.696-2.112-6.912-2.112-5.424 0-9.36 3.024-9.36 11.328 0 8.256 3.456 10.992 8.64 10.992zM144.096 85h1.44l7.056-21.312h.096L159.552 85h1.44l6.864-23.088 2.832-.288v-1.008h-7.728v1.008l3.408.288-5.952 20.256h-.096l-6.96-21.552h-1.248l-7.056 21.552h-.096l-5.952-20.256 3.456-.288v-1.008h-8.016v1.008l2.832.288L144.096 85zm39.024.384c-8.544 0-11.136-5.616-11.136-12.624 0-8.16 4.416-12.528 10.272-12.528 6.048 0 9.456 4.128 9.456 11.76h-17.904c-.144 7.392 2.208 11.952 9.6 11.952 3.696 0 5.808-.912 7.488-1.728v1.152c-1.536.912-3.984 2.016-7.776 2.016zm-9.264-14.592l15.936-.192c-.096-6.096-2.832-9.072-7.632-9.072-4.944 0-7.92 3.552-8.304 9.264zm40.416 14.592c-5.136 0-10.032-2.88-10.032-12.192 0-8.976 4.752-12.96 11.376-12.96 3.216 0 5.136.816 6.768 1.536V51.352l-4.464-.336v-1.008l5.952-.48.24.144v33.792l3.84.336v.96l-5.232.48-.24-.192v-2.784h-.144c-2.208 1.728-4.656 3.12-8.064 3.12zm.48-1.488c2.88 0 5.328-1.44 7.632-2.928v-17.28c-1.824-1.2-3.696-2.112-6.912-2.112-5.424 0-9.36 3.024-9.36 11.328 0 8.256 3.456 10.992 8.64 10.992zm26.592 1.536c-5.76 0-10.992-4.224-10.992-12.48 0-8.208 5.232-12.72 10.992-12.72 5.76 0 10.992 4.32 10.992 12.528s-5.232 12.672-10.992 12.672zm0-1.344c4.704 0 9.12-3.456 9.12-11.184 0-7.824-4.416-11.328-9.12-11.328-4.752 0-9.12 3.6-9.12 11.232 0 7.728 4.416 11.28 9.12 11.28zM273.12 85h1.44l7.056-21.312h.096L288.576 85h1.44l6.864-23.088 2.832-.288v-1.008h-7.728v1.008l3.408.288-5.952 20.256h-.096l-6.96-21.552h-1.248l-7.056 21.552h-.096l-5.952-20.256 3.456-.288v-1.008h-8.016v1.008l2.832.288L273.12 85zm27.072 0h9.552v-.96l-3.984-.336V64.408c2.688-1.44 5.712-2.64 8.832-2.64 4.032 0 5.712 1.68 5.712 5.328v16.608l-3.936.336V85h9.504v-.96l-3.84-.336V66.568c0-4.32-2.352-6.336-6.816-6.336-3.36 0-6.576 1.344-9.36 2.928h-.096V49.624l-.24-.144-5.664.48v1.008l4.176.336v32.4l-3.84.336V85zm35.04.432c-4.56 0-7.248-2.544-7.248-6.48 0-4.128 2.88-6.144 7.44-6.672l7.056-.816v-3.792c0-4.272-1.344-5.856-5.568-5.856-2.688 0-4.896.48-7.296 1.2v-1.248c1.92-.768 4.656-1.536 7.632-1.536 4.8 0 7.008 2.208 7.008 7.056v14.208c0 2.016.96 2.544 2.496 2.544.48 0 1.296-.144 1.536-.192v.912c-.48.24-1.44.528-2.4.528-1.968 0-3.12-1.104-3.216-2.928h-.096c-1.776 1.872-4.224 3.072-7.344 3.072zm.48-1.44c2.736 0 5.232-1.152 6.768-3.024V73l-6.576.48c-4.464.336-6.096 2.208-6.096 5.232 0 3.504 2.016 5.28 5.904 5.28zm22.416 1.344c1.44 0 3.024-.48 4.032-1.056v-1.008c-1.056.384-2.208.672-3.456.672-2.832 0-4.128-1.056-4.128-4.32V62.056h7.008v-1.44h-7.008V54.76h-1.296l-.336 5.856-3.744.48v.96h3.648v17.952c0 3.888 2.16 5.328 5.28 5.328zM11.664 133.48c7.776 0 10.8-3.888 10.8-8.784 0-5.472-3.072-7.584-8.736-9.552l-2.064-.72c-5.184-1.824-6.912-3.84-6.912-7.392 0-3.936 2.304-6.384 8.112-6.384 3.024 0 5.28.816 6.336 1.392l.672 4.656h1.152l-.288-5.952c-2.016-.816-4.368-1.488-7.776-1.488-7.248 0-9.984 3.6-9.984 7.968 0 4.8 3.168 7.104 8.112 8.832l2.064.72c5.664 1.968 7.488 3.6 7.488 8.112 0 4.176-2.448 7.2-9.072 7.2-3.456 0-5.616-.864-7.44-1.776l-.72-5.28H2.256l.24 6.528c2.16 1.008 5.472 1.92 9.168 1.92zm13.92 8.88v-.96l3.792-.288v-30.816l-3.936-.336v-1.008l5.376-.48.192.144v2.64h.144c2.4-1.728 4.896-3.024 8.352-3.024 5.136 0 9.744 2.688 9.744 11.904 0 9.264-4.416 13.248-11.04 13.248-3.456 0-5.376-.528-7.104-1.2v8.88l4.176.336v.96h-9.696zm12.768-10.32c5.376 0 9.024-3.216 9.024-11.52 0-8.256-3.6-10.752-8.4-10.752-3.12 0-5.568 1.296-7.872 2.736v17.76c1.776.96 3.648 1.776 7.248 1.776zm13.296.96h9.696v-.96l-3.984-.336v-23.088l-.24-.144-5.664.48v1.008l4.176.336v21.408l-3.984.336v.96zm4.608-30.48c.816 0 1.392-.672 1.392-1.392 0-.72-.576-1.392-1.392-1.392s-1.392.672-1.392 1.392c0 .72.576 1.392 1.392 1.392zm18.432 30.864c-8.544 0-11.136-5.616-11.136-12.624 0-8.16 4.416-12.528 10.272-12.528 6.048 0 9.456 4.128 9.456 11.76H65.376c-.144 7.392 2.208 11.952 9.6 11.952 3.696 0 5.808-.912 7.488-1.728v1.152c-1.536.912-3.984 2.016-7.776 2.016zm-9.264-14.592l15.936-.192c-.096-6.096-2.832-9.072-7.632-9.072-4.944 0-7.92 3.552-8.304 9.264zM85.536 133v-.96l3.984-.336v-32.4l-4.416-.336V97.96l5.952-.48.24.192v34.032l3.984.336v.96h-9.744zm22.56.384c-3.744 0-6.672-1.056-8.64-2.208V99.352l-4.224-.336v-1.008l5.712-.48.24.144v13.536h.144c2.304-1.632 4.8-2.976 8.256-2.976 5.088 0 9.744 2.784 9.744 11.904 0 8.976-4.32 13.248-11.232 13.248zm.192-1.344c5.568 0 9.168-3.216 9.168-11.52 0-8.4-3.696-10.752-8.304-10.752-3.168 0-5.712 1.296-7.968 2.736v17.52c1.536 1.056 3.744 2.016 7.104 2.016zm25.344 1.344c-8.544 0-11.136-5.616-11.136-12.624 0-8.16 4.416-12.528 10.272-12.528 6.048 0 9.456 4.128 9.456 11.76H124.32c-.144 7.392 2.208 11.952 9.6 11.952 3.696 0 5.808-.912 7.488-1.728v1.152c-1.536.912-3.984 2.016-7.776 2.016zm-9.264-14.592l15.936-.192c-.096-6.096-2.832-9.072-7.632-9.072-4.944 0-7.92 3.552-8.304 9.264zM144.48 133h9.744v-.96l-4.176-.336v-18.432c2.16-2.112 4.224-3.264 7.104-3.264.384 0 1.2.048 1.68.144v-1.584c-.288-.096-1.104-.192-1.488-.192-3.072 0-5.52 1.584-7.248 3.504H150v-3.264l-.24-.144-5.376.48v1.008l3.936.336v21.408l-3.84.336v.96zm25.824 9.552c-6.816 0-9.84-2.928-9.84-6.144 0-3.264 2.448-4.944 5.184-6.24v-.096c-1.632-.384-2.88-1.584-2.88-3.408 0-1.584.96-3.024 2.496-4.416-1.824-1.344-2.928-3.312-2.928-6.048 0-4.752 3.456-7.92 8.592-7.92 1.44 0 2.592.24 3.552.528l7.056-.384v1.488l-5.136-.096c2.016 1.248 3.36 3.408 3.36 6.144 0 4.752-3.696 7.92-8.832 7.92-1.872 0-3.456-.384-4.704-1.056-1.104 1.056-1.872 2.208-1.872 3.552 0 1.248 1.056 2.4 2.976 2.4h7.296c4.704 0 7.44 1.872 7.44 5.664 0 4.08-3.456 8.112-11.76 8.112zm.144-1.296c7.296 0 9.84-3.408 9.84-6.576 0-3.024-1.68-4.32-5.952-4.32h-6.96c-2.88 1.248-5.136 3.264-5.136 5.808 0 2.832 2.16 5.088 8.208 5.088zm.48-18.624c4.224 0 7.008-2.448 7.008-6.528 0-4.224-2.832-6.576-7.008-6.576-4.272 0-6.768 2.448-6.768 6.528 0 4.224 2.544 6.576 6.768 6.576zm33.024 10.752c-5.136 0-10.032-2.88-10.032-12.192 0-8.976 4.752-12.96 11.376-12.96 3.216 0 5.136.816 6.768 1.536V99.352l-4.464-.336v-1.008l5.952-.48.24.144v33.792l3.84.336v.96l-5.232.48-.24-.192v-2.784h-.144c-2.208 1.728-4.656 3.12-8.064 3.12zm.48-1.488c2.88 0 5.328-1.44 7.632-2.928v-17.28c-1.824-1.2-3.696-2.112-6.912-2.112-5.424 0-9.36 3.024-9.36 11.328 0 8.256 3.456 10.992 8.64 10.992zM219.216 133h9.696v-.96l-3.984-.336v-23.088l-.24-.144-5.664.48v1.008l4.176.336v21.408l-3.984.336v.96zm4.608-30.48c.816 0 1.392-.672 1.392-1.392 0-.72-.576-1.392-1.392-1.392s-1.392.672-1.392 1.392c0 .72.576 1.392 1.392 1.392zm17.424 30.864c-5.136 0-10.032-2.88-10.032-12.192 0-8.976 4.752-12.96 11.376-12.96 3.216 0 5.136.816 6.768 1.536V99.352l-4.464-.336v-1.008l5.952-.48.24.144v33.792l3.84.336v.96l-5.232.48-.24-.192v-2.784h-.144c-2.208 1.728-4.656 3.12-8.064 3.12zm.48-1.488c2.88 0 5.328-1.44 7.632-2.928v-17.28c-1.824-1.2-3.696-2.112-6.912-2.112-5.424 0-9.36 3.024-9.36 11.328 0 8.256 3.456 10.992 8.64 10.992zM265.872 133h9.696v-.96l-3.984-.336v-23.088l-.24-.144-5.664.48v1.008l4.176.336v21.408l-3.984.336v.96zm4.608-30.48c.816 0 1.392-.672 1.392-1.392 0-.72-.576-1.392-1.392-1.392s-1.392.672-1.392 1.392c0 .72.576 1.392 1.392 1.392zm6.48 30.48h9.552v-.96l-3.984-.336v-19.296c2.688-1.44 5.712-2.64 8.832-2.64 4.032 0 5.712 1.68 5.712 5.328v16.608l-3.936.336v.96h9.504v-.96l-3.84-.336v-17.136c0-4.32-2.352-6.336-6.816-6.336-3.36 0-6.624 1.344-9.408 2.976h-.096v-2.592l-.24-.144-5.376.48v1.008l3.936.336v21.408l-3.84.336v.96zM9.552 181.336c1.44 0 3.024-.48 4.032-1.056v-1.008c-1.056.384-2.208.672-3.456.672-2.832 0-4.128-1.056-4.128-4.32v-17.568h7.008v-1.44H6v-5.856H4.704l-.336 5.856-3.744.48v.96h3.648v17.952c0 3.888 2.16 5.328 5.28 5.328zm5.76-.336h9.552v-.96l-3.984-.336v-19.296c2.688-1.44 5.712-2.64 8.832-2.64 4.032 0 5.712 1.68 5.712 5.328v16.608l-3.936.336v.96h9.504v-.96l-3.84-.336v-17.136c0-4.32-2.352-6.336-6.816-6.336-3.36 0-6.576 1.344-9.36 2.928h-.096v-13.536l-.24-.144-5.664.48v1.008l4.176.336v32.4l-3.84.336v.96zm38.928.384c-8.544 0-11.136-5.616-11.136-12.624 0-8.16 4.416-12.528 10.272-12.528 6.048 0 9.456 4.128 9.456 11.76H44.928c-.144 7.392 2.208 11.952 9.6 11.952 3.696 0 5.808-.912 7.488-1.728v1.152c-1.536.912-3.984 2.016-7.776 2.016zm-9.264-14.592l15.936-.192c-.096-6.096-2.832-9.072-7.632-9.072-4.944 0-7.92 3.552-8.304 9.264zm42 14.784c-7.2 0-11.28-3.552-11.28-8.688 0-5.472 5.088-8.112 9.12-9.408-4.368-1.536-7.872-3.696-7.872-8.544 0-4.56 4.08-7.776 9.792-7.776 5.616 0 9.888 2.688 9.888 7.68 0 4.944-3.888 7.056-7.776 8.544 4.704 1.632 9.312 3.744 9.312 9.504 0 5.136-4.176 8.688-11.184 8.688zm-.048-1.344c5.952 0 9.312-2.784 9.312-7.2 0-5.28-4.032-6.816-10.032-8.88-3.984 1.248-8.592 3.6-8.592 8.64 0 4.32 3.072 7.44 9.312 7.44zm.576-17.472c3.696-1.392 7.248-3.216 7.248-7.824 0-4.368-3.552-6.432-8.016-6.432-4.416 0-7.92 2.208-7.92 6.288 0 4.704 3.216 6.288 8.688 7.968zm27.456 18.768c-7.872 0-12.624-5.952-12.624-17.088 0-11.232 4.848-17.184 12.624-17.184 7.728 0 12.576 5.856 12.576 17.088 0 11.136-4.752 17.184-12.576 17.184zm0-1.344c7.056 0 10.608-5.568 10.608-15.744 0-10.032-3.552-15.84-10.608-15.84-7.104 0-10.656 5.664-10.656 15.744 0 9.984 3.552 15.84 10.656 15.84zm24 1.248c5.808 0 8.592-2.736 8.592-6.72 0-3.792-2.208-5.424-6.048-6.528l-3.216-.912c-3.744-1.056-4.8-2.496-4.8-5.088 0-3.024 2.208-4.608 5.76-4.608 2.64 0 4.224.528 5.376 1.2l.624 3.504h1.152l-.192-4.896c-1.632-.672-3.648-1.104-6.816-1.104-4.896 0-7.68 2.592-7.68 6.288 0 3.312 2.112 5.232 5.76 6.24l3.216.912c3.648 1.008 5.04 2.208 5.04 5.328s-2.064 5.088-6.672 5.088c-2.496 0-4.368-.672-5.856-1.44l-.672-3.984h-1.152l.336 5.328c1.632.672 3.984 1.392 7.248 1.392zm28.608 0c-4.56 0-7.248-2.544-7.248-6.48 0-4.128 2.88-6.144 7.44-6.672l7.056-.816v-3.792c0-4.272-1.344-5.856-5.568-5.856-2.688 0-4.896.48-7.296 1.2v-1.248c1.92-.768 4.656-1.536 7.632-1.536 4.8 0 7.008 2.208 7.008 7.056v14.208c0 2.016.96 2.544 2.496 2.544.48 0 1.296-.144 1.536-.192v.912c-.48.24-1.44.528-2.4.528-1.968 0-3.12-1.104-3.216-2.928h-.096c-1.776 1.872-4.224 3.072-7.344 3.072zm.48-1.44c2.736 0 5.232-1.152 6.768-3.024V169l-6.576.48c-4.464.336-6.096 2.208-6.096 5.232 0 3.504 2.016 5.28 5.904 5.28zM181.632 181h9.552v-.96l-3.984-.336v-19.296c2.688-1.44 5.712-2.64 8.832-2.64 4.032 0 5.712 1.68 5.712 5.328v16.608l-3.936.336v.96h9.504v-.96l-3.84-.336v-17.136c0-4.32-2.352-6.336-6.816-6.336-3.36 0-6.624 1.344-9.408 2.976h-.096v-2.592l-.24-.144-5.376.48v1.008l3.936.336v21.408l-3.84.336v.96zm37.968.384c-5.136 0-10.032-2.88-10.032-12.192 0-8.976 4.752-12.96 11.376-12.96 3.216 0 5.136.816 6.768 1.536v-10.416l-4.464-.336v-1.008l5.952-.48.24.144v33.792l3.84.336v.96l-5.232.48-.24-.192v-2.784h-.144c-2.208 1.728-4.656 3.12-8.064 3.12zm.48-1.488c2.88 0 5.328-1.44 7.632-2.928v-17.28c-1.824-1.2-3.696-2.112-6.912-2.112-5.424 0-9.36 3.024-9.36 11.328 0 8.256 3.456 10.992 8.64 10.992zM12.672 229.384c-8.544 0-11.136-5.616-11.136-12.624 0-8.16 4.416-12.528 10.272-12.528 6.048 0 9.456 4.128 9.456 11.76H3.36c-.144 7.392 2.208 11.952 9.6 11.952 3.696 0 5.808-.912 7.488-1.728v1.152c-1.536.912-3.984 2.016-7.776 2.016zm-9.264-14.592l15.936-.192c-.096-6.096-2.832-9.072-7.632-9.072-4.944 0-7.92 3.552-8.304 9.264zM23.52 229h9.744v-.96l-3.984-.336v-34.032l-.24-.192-5.952.48v1.008l4.416.336v32.4l-3.984.336v.96zm23.04.384c-8.544 0-11.136-5.616-11.136-12.624 0-8.16 4.416-12.528 10.272-12.528 6.048 0 9.456 4.128 9.456 11.76H37.248c-.144 7.392 2.208 11.952 9.6 11.952 3.696 0 5.808-.912 7.488-1.728v1.152c-1.536.912-3.984 2.016-7.776 2.016zm-9.264-14.592l15.936-.192c-.096-6.096-2.832-9.072-7.632-9.072-4.944 0-7.92 3.552-8.304 9.264zM68.64 229h1.44l8.928-23.088 2.688-.288v-1.008h-7.728v1.008l3.552.24-7.968 20.832h-.144l-8.016-20.832 3.504-.24v-1.008h-7.968v1.008l2.688.288L68.64 229zm21.984.432c-4.56 0-7.248-2.544-7.248-6.48 0-4.128 2.88-6.144 7.44-6.672l7.056-.816v-3.792c0-4.272-1.344-5.856-5.568-5.856-2.688 0-4.896.48-7.296 1.2v-1.248c1.92-.768 4.656-1.536 7.632-1.536 4.8 0 7.008 2.208 7.008 7.056v14.208c0 2.016.96 2.544 2.496 2.544.48 0 1.296-.144 1.536-.192v.912c-.48.24-1.44.528-2.4.528-1.968 0-3.12-1.104-3.216-2.928h-.096c-1.776 1.872-4.224 3.072-7.344 3.072zm.48-1.44c2.736 0 5.232-1.152 6.768-3.024V217l-6.576.48c-4.464.336-6.096 2.208-6.096 5.232 0 3.504 2.016 5.28 5.904 5.28zm22.416 1.344c1.44 0 3.024-.48 4.032-1.056v-1.008c-1.056.384-2.208.672-3.456.672-2.832 0-4.128-1.056-4.128-4.32v-17.568h7.008v-1.44h-7.008v-5.856h-1.296l-.336 5.856-3.744.48v.96h3.648v17.952c0 3.888 2.16 5.328 5.28 5.328zm17.712.048c-8.544 0-11.136-5.616-11.136-12.624 0-8.16 4.416-12.528 10.272-12.528 6.048 0 9.456 4.128 9.456 11.76H121.92c-.144 7.392 2.208 11.952 9.6 11.952 3.696 0 5.808-.912 7.488-1.728v1.152c-1.536.912-3.984 2.016-7.776 2.016zm-9.264-14.592l15.936-.192c-.096-6.096-2.832-9.072-7.632-9.072-4.944 0-7.92 3.552-8.304 9.264zM151.44 229h9.696v-.96l-3.984-.336v-23.088l-.24-.144-5.664.48v1.008l4.176.336v21.408l-3.984.336v.96zm4.608-30.48c.816 0 1.392-.672 1.392-1.392 0-.72-.576-1.392-1.392-1.392s-1.392.672-1.392 1.392c0 .72.576 1.392 1.392 1.392zm15.312 30.816c1.44 0 3.024-.48 4.032-1.056v-1.008c-1.056.384-2.208.672-3.456.672-2.832 0-4.128-1.056-4.128-4.32v-17.568h7.008v-1.44h-7.008v-5.856h-1.296l-.336 5.856-3.744.48v.96h3.648v17.952c0 3.888 2.16 5.328 5.28 5.328zm11.712-8.304h1.152c-.384-1.248-.72-2.64-.72-3.936 0-2.304 1.392-3.648 4.128-5.52 3.36-2.304 5.424-4.32 5.424-8.496 0-5.856-4.128-7.824-8.256-7.824-2.832 0-4.992.624-7.152 1.68v1.248c2.352-.96 4.08-1.44 6.768-1.44 3.888 0 6.864 1.584 6.864 6.384 0 3.504-1.68 5.376-4.368 7.2-3.36 2.304-4.8 3.936-4.8 6.528 0 1.68.432 3.12.96 4.176zm.72 8.352c.864 0 1.536-.672 1.536-1.488s-.672-1.488-1.536-1.488-1.536.672-1.536 1.488.672 1.488 1.536 1.488zm12.864-25.728h1.2c1.008-2.352 1.632-4.944 1.824-7.92h-2.064c0 2.928-.336 5.52-.96 7.92z" id="‘Could-we-do-what-Sp" fill="#FFF"/><path d="M7.584 37h17.664v-5.328l-3.36-.816V9.928h2.544l1.344 5.52h6.48l-.384-11.712H.96L.576 15.448h6.48L8.4 9.928h2.544v20.928l-3.36.816V37zm25.92 0h14.112v-5.04l-1.68-.48V18.568c.816-.288 1.584-.528 2.64-.528 1.68 0 2.448.624 2.448 2.352V31.48l-1.68.48V37h13.872v-5.04l-2.304-.672V16.84c0-4.464-2.832-6.288-6.576-6.288-3.696 0-5.856 1.296-8.16 3.168h-.24V1.384l-.864-.432-11.76 1.152v5.088l2.736.768v23.328l-2.544.672V37zm45.024.624c-9.12 0-14.064-4.704-14.064-13.584 0-8.544 5.184-13.488 13.392-13.488 8.064 0 12.048 3.696 12.048 15.216H74.736c.528 3.984 2.736 5.136 6.576 5.136 3.312 0 5.568-.576 7.392-1.152v5.28c-1.92 1.296-5.04 2.592-10.176 2.592zM77.76 16.36c-1.488 0-2.736.864-3.072 4.896l5.808-.24c0-3.744-1.248-4.656-2.736-4.656zM99.696 37v-5.328l3.072-.816V9.88l-3.024-.816V3.736h16.896c9.888 0 16.608 4.272 16.608 16.128 0 12.144-7.2 17.136-16.512 17.136h-17.04zm14.064-6.384h2.16c3.84 0 5.904-1.92 5.904-10.08 0-8.88-2.208-10.416-6.144-10.416h-1.92v20.496zm30.72 6.96c3.6 0 5.952-1.536 7.584-3.264h.288v2.784l.864.384 11.232-1.152v-5.04l-2.544-.768V11.032l-.864-.432-11.328 1.056v5.088l2.304.816v12c-.72.288-1.488.576-2.736.576-1.776 0-2.4-.768-2.4-2.496V11.032l-.816-.432-11.52 1.056v5.088l2.448.816v12.96c0 4.464 2.112 7.056 7.488 7.056zM181.968 37h14.64v-5.04l-3.072-.672V16.936h4.368v-5.808h-4.368v-.96c0-2.064.96-2.544 2.976-2.544 1.056 0 1.824.096 2.64.288v-6c-1.008-.384-2.976-.864-5.76-.864-4.944 0-9.744 1.92-9.744 8.112v1.968h-5.376v-.432c0-2.016 1.008-2.544 2.496-2.544.576 0 1.008.048 1.392.144V2.344c-.864-.288-2.592-.768-5.136-.768-4.464 0-8.64 1.92-8.64 8.112v1.632l-2.688 1.056v4.56h2.688v14.352l-2.544.672V37h14.112v-5.04l-1.68-.48V16.936h5.376V31.48l-1.68.48V37zm31.344.624c-9.12 0-14.064-4.704-14.064-13.584 0-8.544 5.184-13.488 13.392-13.488 8.064 0 12.048 3.696 12.048 15.216H209.52c.528 3.984 2.736 5.136 6.576 5.136 3.312 0 5.568-.576 7.392-1.152v5.28c-1.92 1.296-5.04 2.592-10.176 2.592zm-.768-21.264c-1.488 0-2.736.864-3.072 4.896l5.808-.24c0-3.744-1.248-4.656-2.736-4.656zM226.224 37h15.936v-5.04l-3.504-.672V20.104c1.44-.576 2.976-.768 5.328-.768.912 0 1.824.096 2.352.24V10.84c-.336-.096-.864-.144-1.296-.144-2.976 0-5.136 1.824-6.48 4.272h-.288v-3.984l-.816-.384-11.424 1.104v5.136l2.736.768v13.68l-2.544.672V37zm29.568 0v-5.328l3.072-.816V9.88l-3.072-.816V3.736h17.52c7.776 0 12.096 2.784 12.096 8.4 0 4.176-1.392 6.432-6 7.68v.24c5.28.624 7.536 3.12 7.536 7.92 0 5.856-3.744 9.024-12.912 9.024h-18.24zm13.824-6h2.256c2.448 0 3.648-1.2 3.648-4.08s-1.296-4.128-3.744-4.128h-2.16V31zm0-13.536h2.016c2.064 0 3.264-1.008 3.264-3.888 0-2.784-1.152-3.84-3.312-3.84h-1.968v7.728zM288.096 37h15.936v-5.04l-3.504-.672V20.104c1.44-.576 2.976-.768 5.328-.768.912 0 1.824.096 2.352.24V10.84c-.336-.096-.864-.144-1.296-.144-2.976 0-5.136 1.824-6.48 4.272h-.288v-3.984l-.816-.384-11.424 1.104v5.136l2.736.768v13.68l-2.544.672V37zm34.944.624c-8.928 0-13.632-5.136-13.632-13.392 0-9.072 6-13.68 13.632-13.68 8.928 0 13.632 4.8 13.632 13.344 0 9.072-6.048 13.728-13.632 13.728zm.048-5.952c2.064 0 3.12-1.488 3.12-7.44 0-6.336-1.152-7.776-3.216-7.776s-3.168 1.248-3.168 7.44c0 6.336 1.152 7.776 3.264 7.776zm25.824 5.904c2.976 0 5.28-.672 6.48-1.392v-5.28c-.624.192-1.44.336-2.208.336-1.872 0-2.928-.528-2.928-2.64V16.936h4.896v-5.808h-4.896V5.08h-7.824l-1.152 5.952-3.456 1.344v4.56h2.544v13.248c0 5.616 3.12 7.392 8.544 7.392zM357.12 37h14.112v-5.04l-1.68-.48V18.568c.816-.288 1.584-.528 2.64-.528 1.68 0 2.448.624 2.448 2.352V31.48l-1.68.48V37h13.872v-5.04l-2.304-.672V16.84c0-4.464-2.832-6.288-6.576-6.288-3.696 0-5.856 1.296-8.16 3.168h-.24V1.384l-.864-.432-11.76 1.152v5.088l2.736.768v23.328l-2.544.672V37zm45.024.624c-9.12 0-14.064-4.704-14.064-13.584 0-8.544 5.184-13.488 13.392-13.488 8.064 0 12.048 3.696 12.048 15.216h-15.168c.528 3.984 2.736 5.136 6.576 5.136 3.312 0 5.568-.576 7.392-1.152v5.28c-1.92 1.296-5.04 2.592-10.176 2.592zm-.768-21.264c-1.488 0-2.736.864-3.072 4.896l5.808-.24c0-3.744-1.248-4.656-2.736-4.656zM415.056 37h15.936v-5.04l-3.504-.672V20.104c1.44-.576 2.976-.768 5.328-.768.912 0 1.824.096 2.352.24V10.84c-.336-.096-.864-.144-1.296-.144-2.976 0-5.136 1.824-6.48 4.272h-.288v-3.984l-.816-.384-11.424 1.104v5.136l2.736.768v13.68l-2.544.672V37zm31.248.624c9.072 0 12.72-3.696 12.72-9.456 0-3.984-2.112-6.72-7.44-7.776l-3.216-.672c-2.352-.48-3.168-.912-3.168-2.064 0-1.2 1.344-1.68 2.976-1.68 1.296 0 2.112.288 2.64.576l.48 2.256h6.096V12.04c-2.208-1.008-5.664-1.536-8.928-1.536-8.448 0-12.096 3.696-12.096 8.976 0 4.752 2.64 7.056 7.632 8.064l2.832.624c1.968.432 2.688.816 2.688 1.968 0 1.2-1.056 1.92-2.928 1.92-1.344 0-2.448-.384-2.976-.72l-.864-2.448h-6.24l.432 7.104c2.736 1.104 6.384 1.632 9.36 1.632z" id="The-Duffer-Brothers" fill="#E30513"/></g></g></g></svg>