<svg width="346" height="251" viewBox="0 0 346 251" xmlns="http://www.w3.org/2000/svg" xmlns:xlink="http://www.w3.org/1999/xlink"><title>outline</title><defs><path id="path-1" d="M0 209h80v1H0z"/></defs><g id="Page-1" fill="none" fill-rule="evenodd"><g id="Artboard-mobile"><g id="outline"><path d="M5.688 28h13.248v-3.996l-2.52-.612V7.696h1.908l1.008 4.14h4.86l-.288-8.784H.72l-.288 8.784h4.86L6.3 7.696h1.908v15.696l-2.52.612V28zm19.44 0h10.584v-3.78l-1.26-.36v-9.684c.612-.216 1.188-.396 1.98-.396 1.26 0 1.836.468 1.836 1.764v8.316l-1.26.36V28h10.404v-3.78l-1.728-.504V12.88c0-3.348-2.124-4.716-4.932-4.716-2.772 0-4.392.972-6.12 2.376h-.18V1.288l-.648-.324-8.82.864v3.816l2.052.576v17.496l-1.908.504V28zm33.768.468c-6.84 0-10.548-3.528-10.548-10.188 0-6.408 3.888-10.116 10.044-10.116 6.048 0 9.036 2.772 9.036 11.412H56.052c.396 2.988 2.052 3.852 4.932 3.852 2.484 0 4.176-.432 5.544-.864v3.96c-1.44.972-3.78 1.944-7.632 1.944zM58.32 12.52c-1.116 0-2.052.648-2.304 3.672l4.356-.18c0-2.808-.936-3.492-2.052-3.492zM74.772 28v-3.996l2.304-.612V7.66l-2.268-.612V3.052H87.48c7.416 0 12.456 3.204 12.456 12.096 0 9.108-5.4 12.852-12.384 12.852h-12.78zm10.548-4.788h1.62c2.88 0 4.428-1.44 4.428-7.56 0-6.66-1.656-7.812-4.608-7.812h-1.44v15.372zm23.04 5.22c2.7 0 4.464-1.152 5.688-2.448h.216v2.088l.648.288 8.424-.864v-3.78l-1.908-.576V8.524l-.648-.324-8.496.792v3.816l1.728.612v9c-.54.216-1.116.432-2.052.432-1.332 0-1.8-.576-1.8-1.872V8.524l-.612-.324-8.64.792v3.816l1.836.612v9.72c0 3.348 1.584 5.292 5.616 5.292zM136.476 28h10.98v-3.78l-2.304-.504V12.952h3.276V8.596h-3.276v-.72c0-1.548.72-1.908 2.232-1.908.792 0 1.368.072 1.98.216v-4.5c-.756-.288-2.232-.648-4.32-.648-3.708 0-7.308 1.44-7.308 6.084v1.476h-4.032v-.324c0-1.512.756-1.908 1.872-1.908.432 0 .756.036 1.044.108V2.008c-.648-.216-1.944-.576-3.852-.576-3.348 0-6.48 1.44-6.48 6.084V8.74l-2.016.792v3.42h2.016v10.764l-1.908.504V28h10.584v-3.78l-1.26-.36V12.952h4.032V23.86l-1.26.36V28zm23.508.468c-6.84 0-10.548-3.528-10.548-10.188 0-6.408 3.888-10.116 10.044-10.116 6.048 0 9.036 2.772 9.036 11.412H157.14c.396 2.988 2.052 3.852 4.932 3.852 2.484 0 4.176-.432 5.544-.864v3.96c-1.44.972-3.78 1.944-7.632 1.944zm-.576-15.948c-1.116 0-2.052.648-2.304 3.672l4.356-.18c0-2.808-.936-3.492-2.052-3.492zM169.668 28h11.952v-3.78l-2.628-.504v-8.388c1.08-.432 2.232-.576 3.996-.576.684 0 1.368.072 1.764.18V8.38c-.252-.072-.648-.108-.972-.108-2.232 0-3.852 1.368-4.86 3.204h-.216V8.488l-.612-.288-8.568.828v3.852l2.052.576v10.26l-1.908.504V28zM.576 68v-3.996l2.304-.612V47.66l-2.304-.612v-3.996h13.14c5.832 0 9.072 2.088 9.072 6.3 0 3.132-1.044 4.824-4.5 5.76v.18c3.96.468 5.652 2.34 5.652 5.94 0 4.392-2.808 6.768-9.684 6.768H.576zm10.368-4.5h1.692c1.836 0 2.736-.9 2.736-3.06s-.972-3.096-2.808-3.096h-1.62V63.5zm0-10.152h1.512c1.548 0 2.448-.756 2.448-2.916 0-2.088-.864-2.88-2.484-2.88h-1.476v5.796zM24.804 68h11.952v-3.78l-2.628-.504v-8.388c1.08-.432 2.232-.576 3.996-.576.684 0 1.368.072 1.764.18V48.38c-.252-.072-.648-.108-.972-.108-2.232 0-3.852 1.368-4.86 3.204h-.216v-2.988l-.612-.288-8.568.828v3.852l2.052.576v10.26l-1.908.504V68zm26.208.468c-6.696 0-10.224-3.852-10.224-10.044 0-6.804 4.5-10.26 10.224-10.26 6.696 0 10.224 3.6 10.224 10.008 0 6.804-4.536 10.296-10.224 10.296zm.036-4.464c1.548 0 2.34-1.116 2.34-5.58 0-4.752-.864-5.832-2.412-5.832s-2.376.936-2.376 5.58c0 4.752.864 5.832 2.448 5.832zm19.368 4.428c2.232 0 3.96-.504 4.86-1.044v-3.96c-.468.144-1.08.252-1.656.252-1.404 0-2.196-.396-2.196-1.98v-8.748h3.672v-4.356h-3.672V44.06h-5.868l-.864 4.464-2.592 1.008v3.42h1.908v9.936c0 4.212 2.34 5.544 6.408 5.544zM76.572 68h10.584v-3.78l-1.26-.36v-9.684c.612-.216 1.188-.396 1.98-.396 1.26 0 1.836.468 1.836 1.764v8.316l-1.26.36V68h10.404v-3.78l-1.728-.504V52.88c0-3.348-2.124-4.716-4.932-4.716-2.772 0-4.392.972-6.12 2.376h-.18v-9.252l-.648-.324-8.82.864v3.816l2.052.576v17.496l-1.908.504V68zm33.768.468c-6.84 0-10.548-3.528-10.548-10.188 0-6.408 3.888-10.116 10.044-10.116 6.048 0 9.036 2.772 9.036 11.412h-11.376c.396 2.988 2.052 3.852 4.932 3.852 2.484 0 4.176-.432 5.544-.864v3.96c-1.44.972-3.78 1.944-7.632 1.944zm-.576-15.948c-1.116 0-2.052.648-2.304 3.672l4.356-.18c0-2.808-.936-3.492-2.052-3.492zM120.024 68h11.952v-3.78l-2.628-.504v-8.388c1.08-.432 2.232-.576 3.996-.576.684 0 1.368.072 1.764.18V48.38c-.252-.072-.648-.108-.972-.108-2.232 0-3.852 1.368-4.86 3.204h-.216v-2.988l-.612-.288-8.568.828v3.852l2.052.576v10.26l-1.908.504V68zm23.436.468c6.804 0 9.54-2.772 9.54-7.092 0-2.988-1.584-5.04-5.58-5.832l-2.412-.504c-1.764-.36-2.376-.684-2.376-1.548 0-.9 1.008-1.26 2.232-1.26.972 0 1.584.216 1.98.432l.36 1.692h4.572V49.28c-1.656-.756-4.248-1.152-6.696-1.152-6.336 0-9.072 2.772-9.072 6.732 0 3.564 1.98 5.292 5.724 6.048l2.124.468c1.476.324 2.016.612 2.016 1.476 0 .9-.792 1.44-2.196 1.44-1.008 0-1.836-.288-2.232-.54l-.648-1.836h-4.68l.324 5.328c2.052.828 4.788 1.224 7.02 1.224z" id="The-Duffer-Brothers" fill="#E30513"/><path d="M1.62 88.992h1.548c0-2.16.252-4.104.72-5.94h-.9c-.756 1.8-1.224 3.708-1.368 5.94zm16.452 19.404c3.312 0 5.328-.612 6.948-1.296l.216-5.364h-.864l-.684 4.428c-1.332.612-3.024 1.188-5.652 1.188-6.696 0-9.828-4.284-9.828-11.988 0-7.416 3.204-11.7 9.756-11.7 2.592 0 4.32.54 5.508 1.116l.684 4.32h.864l-.216-5.328c-1.44-.576-3.24-1.116-6.804-1.116-6.912 0-11.268 4.068-11.268 12.852 0 8.496 3.924 12.888 11.34 12.888zm18.18-.072c-4.32 0-8.244-3.168-8.244-9.36 0-6.156 3.924-9.54 8.244-9.54s8.244 3.24 8.244 9.396c0 6.156-3.924 9.504-8.244 9.504zm0-1.008c3.528 0 6.84-2.592 6.84-8.388 0-5.868-3.312-8.496-6.84-8.496-3.564 0-6.84 2.7-6.84 8.424 0 5.796 3.312 8.46 6.84 8.46zm17.748.936c2.52 0 4.752-.9 6.876-2.16h.108v1.944l.18.144 3.96-.36v-.72l-2.916-.252v-17.1l-.18-.144-3.96.252v.756l2.844.252v14.364c-2.016 1.044-4.104 1.872-6.444 1.872-3.024 0-4.284-1.26-4.284-3.996V89.748l-.18-.144-3.996.252v.756l2.88.252v12.384c0 3.24 1.656 5.004 5.112 5.004zM66.204 108h7.308v-.72l-2.988-.252V81.504l-.18-.144-4.464.36v.756l3.312.252v24.3l-2.988.252v.72zm16.524.288c-3.852 0-7.524-2.16-7.524-9.144 0-6.732 3.564-9.72 8.532-9.72 2.412 0 3.852.612 5.076 1.152v-7.812l-3.348-.252v-.756l4.464-.36.18.108v25.344l2.88.252v.72l-3.924.36-.18-.144v-2.088h-.108c-1.656 1.296-3.492 2.34-6.048 2.34zm.36-1.116c2.16 0 3.996-1.08 5.724-2.196v-12.96c-1.368-.9-2.772-1.584-5.184-1.584-4.068 0-7.02 2.268-7.02 8.496 0 6.192 2.592 8.244 6.48 8.244zm24.984.828h1.08l5.292-15.984h.072L119.664 108h1.08l5.148-17.316 2.124-.216v-.756h-5.796v.756l2.556.216-4.464 15.192h-.072l-5.22-16.164h-.936l-5.292 16.164h-.072l-4.464-15.192 2.592-.216v-.756h-6.012v.756l2.124.216L108.072 108zm29.268.288c-6.408 0-8.352-4.212-8.352-9.468 0-6.12 3.312-9.396 7.704-9.396 4.536 0 7.092 3.096 7.092 8.82h-13.428c-.108 5.544 1.656 8.964 7.2 8.964 2.772 0 4.356-.684 5.616-1.296v.864c-1.152.684-2.988 1.512-5.832 1.512zm-6.948-10.944l11.952-.144c-.072-4.572-2.124-6.804-5.724-6.804-3.708 0-5.94 2.664-6.228 6.948zm30.312 10.944c-3.852 0-7.524-2.16-7.524-9.144 0-6.732 3.564-9.72 8.532-9.72 2.412 0 3.852.612 5.076 1.152v-7.812l-3.348-.252v-.756l4.464-.36.18.108v25.344l2.88.252v.72l-3.924.36-.18-.144v-2.088h-.108c-1.656 1.296-3.492 2.34-6.048 2.34zm.36-1.116c2.16 0 3.996-1.08 5.724-2.196v-12.96c-1.368-.9-2.772-1.584-5.184-1.584-4.068 0-7.02 2.268-7.02 8.496 0 6.192 2.592 8.244 6.48 8.244zm19.944 1.152c-4.32 0-8.244-3.168-8.244-9.36 0-6.156 3.924-9.54 8.244-9.54s8.244 3.24 8.244 9.396c0 6.156-3.924 9.504-8.244 9.504zm0-1.008c3.528 0 6.84-2.592 6.84-8.388 0-5.868-3.312-8.496-6.84-8.496-3.564 0-6.84 2.7-6.84 8.424 0 5.796 3.312 8.46 6.84 8.46zm23.832.684h1.08l5.292-15.984h.072L216.432 108h1.08l5.148-17.316 2.124-.216v-.756h-5.796v.756l2.556.216-4.464 15.192h-.072l-5.22-16.164h-.936l-5.292 16.164h-.072l-4.464-15.192 2.592-.216v-.756h-6.012v.756l2.124.216L204.84 108zm20.304 0h7.164v-.72l-2.988-.252V92.556c2.016-1.08 4.284-1.98 6.624-1.98 3.024 0 4.284 1.26 4.284 3.996v12.456l-2.952.252v.72h7.128v-.72l-2.88-.252V94.176c0-3.24-1.764-4.752-5.112-4.752-2.52 0-4.932 1.008-7.02 2.196h-.072V81.468l-.18-.108-4.248.36v.756l3.132.252v24.3l-2.88.252v.72zm26.28.324c-3.42 0-5.436-1.908-5.436-4.86 0-3.096 2.16-4.608 5.58-5.004l5.292-.612v-2.844c0-3.204-1.008-4.392-4.176-4.392-2.016 0-3.672.36-5.472.9v-.936c1.44-.576 3.492-1.152 5.724-1.152 3.6 0 5.256 1.656 5.256 5.292v10.656c0 1.512.72 1.908 1.872 1.908.36 0 .972-.108 1.152-.144v.684c-.36.18-1.08.396-1.8.396-1.476 0-2.34-.828-2.412-2.196h-.072c-1.332 1.404-3.168 2.304-5.508 2.304zm.36-1.08c2.052 0 3.924-.864 5.076-2.268V99l-4.932.36c-3.348.252-4.572 1.656-4.572 3.924 0 2.628 1.512 3.96 4.428 3.96zm16.812 1.008c1.08 0 2.268-.36 3.024-.792v-.756c-.792.288-1.656.504-2.592.504-2.124 0-3.096-.792-3.096-3.24V90.792h5.256v-1.08h-5.256V85.32h-.972l-.252 4.392-2.808.36v.72h2.736v13.464c0 2.916 1.62 3.996 3.96 3.996zM8.748 148.36c5.832 0 8.1-2.916 8.1-6.588 0-4.104-2.304-5.688-6.552-7.164l-1.548-.54c-3.888-1.368-5.184-2.88-5.184-5.544 0-2.952 1.728-4.788 6.084-4.788 2.268 0 3.96.612 4.752 1.044l.504 3.492h.864l-.216-4.464c-1.512-.612-3.276-1.116-5.832-1.116-5.436 0-7.488 2.7-7.488 5.976 0 3.6 2.376 5.328 6.084 6.624l1.548.54c4.248 1.476 5.616 2.7 5.616 6.084 0 3.132-1.836 5.4-6.804 5.4-2.592 0-4.212-.648-5.58-1.332l-.54-3.96h-.864l.18 4.896c1.62.756 4.104 1.44 6.876 1.44zm10.44 6.66v-.72l2.844-.216v-23.112l-2.952-.252v-.756l4.032-.36.144.108v1.98h.108c1.8-1.296 3.672-2.268 6.264-2.268 3.852 0 7.308 2.016 7.308 8.928 0 6.948-3.312 9.936-8.28 9.936-2.592 0-4.032-.396-5.328-.9v6.66l3.132.252v.72h-7.272zm9.576-7.74c4.032 0 6.768-2.412 6.768-8.64 0-6.192-2.7-8.064-6.3-8.064-2.34 0-4.176.972-5.904 2.052v13.32c1.332.72 2.736 1.332 5.436 1.332zm9.972.72h7.272v-.72l-2.988-.252v-17.316l-.18-.108-4.248.36v.756l3.132.252v16.056l-2.988.252v.72zm3.456-22.86c.612 0 1.044-.504 1.044-1.044s-.432-1.044-1.044-1.044c-.612 0-1.044.504-1.044 1.044s.432 1.044 1.044 1.044zm13.824 23.148c-6.408 0-8.352-4.212-8.352-9.468 0-6.12 3.312-9.396 7.704-9.396 4.536 0 7.092 3.096 7.092 8.82H49.032c-.108 5.544 1.656 8.964 7.2 8.964 2.772 0 4.356-.684 5.616-1.296v.864c-1.152.684-2.988 1.512-5.832 1.512zm-6.948-10.944l11.952-.144c-.072-4.572-2.124-6.804-5.724-6.804-3.708 0-5.94 2.664-6.228 6.948zM64.152 148v-.72l2.988-.252v-24.3l-3.312-.252v-.756l4.464-.36.18.144v25.524l2.988.252v.72h-7.308zm16.92.288c-2.808 0-5.004-.792-6.48-1.656v-23.868l-3.168-.252v-.756l4.284-.36.18.108v10.152h.108c1.728-1.224 3.6-2.232 6.192-2.232 3.816 0 7.308 2.088 7.308 8.928 0 6.732-3.24 9.936-8.424 9.936zm.144-1.008c4.176 0 6.876-2.412 6.876-8.64 0-6.3-2.772-8.064-6.228-8.064-2.376 0-4.284.972-5.976 2.052v13.14c1.152.792 2.808 1.512 5.328 1.512zm19.008 1.008c-6.408 0-8.352-4.212-8.352-9.468 0-6.12 3.312-9.396 7.704-9.396 4.536 0 7.092 3.096 7.092 8.82H93.24c-.108 5.544 1.656 8.964 7.2 8.964 2.772 0 4.356-.684 5.616-1.296v.864c-1.152.684-2.988 1.512-5.832 1.512zm-6.948-10.944l11.952-.144c-.072-4.572-2.124-6.804-5.724-6.804-3.708 0-5.94 2.664-6.228 6.948zM108.36 148h7.308v-.72l-3.132-.252v-13.824c1.62-1.584 3.168-2.448 5.328-2.448.288 0 .9.036 1.26.108v-1.188c-.216-.072-.828-.144-1.116-.144-2.304 0-4.14 1.188-5.436 2.628h-.072v-2.448l-.18-.108-4.032.36v.756l2.952.252v16.056l-2.88.252v.72zm19.368 7.164c-5.112 0-7.38-2.196-7.38-4.608 0-2.448 1.836-3.708 3.888-4.68v-.072c-1.224-.288-2.16-1.188-2.16-2.556 0-1.188.72-2.268 1.872-3.312-1.368-1.008-2.196-2.484-2.196-4.536 0-3.564 2.592-5.94 6.444-5.94 1.08 0 1.944.18 2.664.396l5.292-.288v1.116l-3.852-.072c1.512.936 2.52 2.556 2.52 4.608 0 3.564-2.772 5.94-6.624 5.94-1.404 0-2.592-.288-3.528-.792-.828.792-1.404 1.656-1.404 2.664 0 .936.792 1.8 2.232 1.8h5.472c3.528 0 5.58 1.404 5.58 4.248 0 3.06-2.592 6.084-8.82 6.084zm.108-.972c5.472 0 7.38-2.556 7.38-4.932 0-2.268-1.26-3.24-4.464-3.24h-5.22c-2.16.936-3.852 2.448-3.852 4.356 0 2.124 1.62 3.816 6.156 3.816zm.36-13.968c3.168 0 5.256-1.836 5.256-4.896 0-3.168-2.124-4.932-5.256-4.932-3.204 0-5.076 1.836-5.076 4.896 0 3.168 1.908 4.932 5.076 4.932zm24.768 8.064c-3.852 0-7.524-2.16-7.524-9.144 0-6.732 3.564-9.72 8.532-9.72 2.412 0 3.852.612 5.076 1.152v-7.812l-3.348-.252v-.756l4.464-.36.18.108v25.344l2.88.252v.72l-3.924.36-.18-.144v-2.088h-.108c-1.656 1.296-3.492 2.34-6.048 2.34zm.36-1.116c2.16 0 3.996-1.08 5.724-2.196v-12.96c-1.368-.9-2.772-1.584-5.184-1.584-4.068 0-7.02 2.268-7.02 8.496 0 6.192 2.592 8.244 6.48 8.244zm11.088.828h7.272v-.72l-2.988-.252v-17.316l-.18-.108-4.248.36v.756l3.132.252v16.056l-2.988.252v.72zm3.456-22.86c.612 0 1.044-.504 1.044-1.044s-.432-1.044-1.044-1.044c-.612 0-1.044.504-1.044 1.044s.432 1.044 1.044 1.044zm13.068 23.148c-3.852 0-7.524-2.16-7.524-9.144 0-6.732 3.564-9.72 8.532-9.72 2.412 0 3.852.612 5.076 1.152v-7.812l-3.348-.252v-.756l4.464-.36.18.108v25.344l2.88.252v.72l-3.924.36-.18-.144v-2.088h-.108c-1.656 1.296-3.492 2.34-6.048 2.34zm.36-1.116c2.16 0 3.996-1.08 5.724-2.196v-12.96c-1.368-.9-2.772-1.584-5.184-1.584-4.068 0-7.02 2.268-7.02 8.496 0 6.192 2.592 8.244 6.48 8.244zm18.108.828h7.272v-.72l-2.988-.252v-17.316l-.18-.108-4.248.36v.756l3.132.252v16.056l-2.988.252v.72zm3.456-22.86c.612 0 1.044-.504 1.044-1.044s-.432-1.044-1.044-1.044c-.612 0-1.044.504-1.044 1.044s.432 1.044 1.044 1.044zm4.86 22.86h7.164v-.72l-2.988-.252v-14.472c2.016-1.08 4.284-1.98 6.624-1.98 3.024 0 4.284 1.26 4.284 3.996v12.456l-2.952.252v.72h7.128v-.72l-2.88-.252v-12.852c0-3.24-1.764-4.752-5.112-4.752-2.52 0-4.968 1.008-7.056 2.232h-.072v-1.944l-.18-.108-4.032.36v.756l2.952.252v16.056l-2.88.252v.72zm33.912.252c1.08 0 2.268-.36 3.024-.792v-.756c-.792.288-1.656.504-2.592.504-2.124 0-3.096-.792-3.096-3.24v-13.176h5.256v-1.08h-5.256v-4.392h-.972l-.252 4.392-2.808.36v.72h2.736v13.464c0 2.916 1.62 3.996 3.96 3.996zm4.32-.252h7.164v-.72l-2.988-.252v-14.472c2.016-1.08 4.284-1.98 6.624-1.98 3.024 0 4.284 1.26 4.284 3.996v12.456l-2.952.252v.72h7.128v-.72l-2.88-.252v-12.852c0-3.24-1.764-4.752-5.112-4.752-2.52 0-4.932 1.008-7.02 2.196h-.072v-10.152l-.18-.108-4.248.36v.756l3.132.252v24.3l-2.88.252v.72zm29.196.288c-6.408 0-8.352-4.212-8.352-9.468 0-6.12 3.312-9.396 7.704-9.396 4.536 0 7.092 3.096 7.092 8.82h-13.428c-.108 5.544 1.656 8.964 7.2 8.964 2.772 0 4.356-.684 5.616-1.296v.864c-1.152.684-2.988 1.512-5.832 1.512zm-6.948-10.944l11.952-.144c-.072-4.572-2.124-6.804-5.724-6.804-3.708 0-5.94 2.664-6.228 6.948zm31.5 11.088c-5.4 0-8.46-2.664-8.46-6.516 0-4.104 3.816-6.084 6.84-7.056-3.276-1.152-5.904-2.772-5.904-6.408 0-3.42 3.06-5.832 7.344-5.832 4.212 0 7.416 2.016 7.416 5.76 0 3.708-2.916 5.292-5.832 6.408 3.528 1.224 6.984 2.808 6.984 7.128 0 3.852-3.132 6.516-8.388 6.516zm-.036-1.008c4.464 0 6.984-2.088 6.984-5.4 0-3.96-3.024-5.112-7.524-6.66-2.988.936-6.444 2.7-6.444 6.48 0 3.24 2.304 5.58 6.984 5.58zm.432-13.104c2.772-1.044 5.436-2.412 5.436-5.868 0-3.276-2.664-4.824-6.012-4.824-3.312 0-5.94 1.656-5.94 4.716 0 3.528 2.412 4.716 6.516 5.976zm20.592 14.076c-5.904 0-9.468-4.464-9.468-12.816 0-8.424 3.636-12.888 9.468-12.888 5.796 0 9.432 4.392 9.432 12.816 0 8.352-3.564 12.888-9.432 12.888zm0-1.008c5.292 0 7.956-4.176 7.956-11.808 0-7.524-2.664-11.88-7.956-11.88-5.328 0-7.992 4.248-7.992 11.808 0 7.488 2.664 11.88 7.992 11.88zm18 .936c4.356 0 6.444-2.052 6.444-5.04 0-2.844-1.656-4.068-4.536-4.896l-2.412-.684c-2.808-.792-3.6-1.872-3.6-3.816 0-2.268 1.656-3.456 4.32-3.456 1.98 0 3.168.396 4.032.9l.468 2.628h.864l-.144-3.672c-1.224-.504-2.736-.828-5.112-.828-3.672 0-5.76 1.944-5.76 4.716 0 2.484 1.584 3.924 4.32 4.68l2.412.684c2.736.756 3.78 1.656 3.78 3.996s-1.548 3.816-5.004 3.816c-1.872 0-3.276-.504-4.392-1.08l-.504-2.988H333l.252 3.996c1.224.504 2.988 1.044 5.436 1.044zm-332.1 40c-3.42 0-5.436-1.908-5.436-4.86 0-3.096 2.16-4.608 5.58-5.004l5.292-.612v-2.844c0-3.204-1.008-4.392-4.176-4.392-2.016 0-3.672.36-5.472.9v-.936c1.44-.576 3.492-1.152 5.724-1.152 3.6 0 5.256 1.656 5.256 5.292v10.656c0 1.512.72 1.908 1.872 1.908.36 0 .972-.108 1.152-.144v.684c-.36.18-1.08.396-1.8.396-1.476 0-2.34-.828-2.412-2.196h-.072c-1.332 1.404-3.168 2.304-5.508 2.304zm.36-1.08c2.052 0 3.924-.864 5.076-2.268V179l-4.932.36c-3.348.252-4.572 1.656-4.572 3.924 0 2.628 1.512 3.96 4.428 3.96zm10.188.756H24.3v-.72l-2.988-.252v-14.472c2.016-1.08 4.284-1.98 6.624-1.98 3.024 0 4.284 1.26 4.284 3.996v12.456l-2.952.252v.72h7.128v-.72l-2.88-.252v-12.852c0-3.24-1.764-4.752-5.112-4.752-2.52 0-4.968 1.008-7.056 2.232h-.072v-1.944l-.18-.108-4.032.36v.756l2.952.252v16.056l-2.88.252v.72zm28.476.288c-3.852 0-7.524-2.16-7.524-9.144 0-6.732 3.564-9.72 8.532-9.72 2.412 0 3.852.612 5.076 1.152v-7.812l-3.348-.252v-.756l4.464-.36.18.108v25.344l2.88.252v.72l-3.924.36-.18-.144v-2.088h-.108c-1.656 1.296-3.492 2.34-6.048 2.34zm.36-1.116c2.16 0 3.996-1.08 5.724-2.196v-12.96c-1.368-.9-2.772-1.584-5.184-1.584-4.068 0-7.02 2.268-7.02 8.496 0 6.192 2.592 8.244 6.48 8.244zm27.072 1.116c-6.408 0-8.352-4.212-8.352-9.468 0-6.12 3.312-9.396 7.704-9.396 4.536 0 7.092 3.096 7.092 8.82H66.06c-.108 5.544 1.656 8.964 7.2 8.964 2.772 0 4.356-.684 5.616-1.296v.864c-1.152.684-2.988 1.512-5.832 1.512zm-6.948-10.944l11.952-.144c-.072-4.572-2.124-6.804-5.724-6.804-3.708 0-5.94 2.664-6.228 6.948zM81.18 188h7.308v-.72l-2.988-.252v-25.524l-.18-.144-4.464.36v.756l3.312.252v24.3l-2.988.252v.72zm17.28.288c-6.408 0-8.352-4.212-8.352-9.468 0-6.12 3.312-9.396 7.704-9.396 4.536 0 7.092 3.096 7.092 8.82H91.476c-.108 5.544 1.656 8.964 7.2 8.964 2.772 0 4.356-.684 5.616-1.296v.864c-1.152.684-2.988 1.512-5.832 1.512zm-6.948-10.944l11.952-.144c-.072-4.572-2.124-6.804-5.724-6.804-3.708 0-5.94 2.664-6.228 6.948zM115.02 188h1.08l6.696-17.316 2.016-.216v-.756h-5.796v.756l2.664.18-5.976 15.624h-.108l-6.012-15.624 2.628-.18v-.756h-5.976v.756l2.016.216L115.02 188zm16.488.324c-3.42 0-5.436-1.908-5.436-4.86 0-3.096 2.16-4.608 5.58-5.004l5.292-.612v-2.844c0-3.204-1.008-4.392-4.176-4.392-2.016 0-3.672.36-5.472.9v-.936c1.44-.576 3.492-1.152 5.724-1.152 3.6 0 5.256 1.656 5.256 5.292v10.656c0 1.512.72 1.908 1.872 1.908.36 0 .972-.108 1.152-.144v.684c-.36.18-1.08.396-1.8.396-1.476 0-2.34-.828-2.412-2.196h-.072c-1.332 1.404-3.168 2.304-5.508 2.304zm.36-1.08c2.052 0 3.924-.864 5.076-2.268V179l-4.932.36c-3.348.252-4.572 1.656-4.572 3.924 0 2.628 1.512 3.96 4.428 3.96zm16.812 1.008c1.08 0 2.268-.36 3.024-.792v-.756c-.792.288-1.656.504-2.592.504-2.124 0-3.096-.792-3.096-3.24v-13.176h5.256v-1.08h-5.256v-4.392h-.972l-.252 4.392-2.808.36v.72h2.736v13.464c0 2.916 1.62 3.996 3.96 3.996zm13.284.036c-6.408 0-8.352-4.212-8.352-9.468 0-6.12 3.312-9.396 7.704-9.396 4.536 0 7.092 3.096 7.092 8.82H154.98c-.108 5.544 1.656 8.964 7.2 8.964 2.772 0 4.356-.684 5.616-1.296v.864c-1.152.684-2.988 1.512-5.832 1.512zm-6.948-10.944l11.952-.144c-.072-4.572-2.124-6.804-5.724-6.804-3.708 0-5.94 2.664-6.228 6.948zM177.12 188h7.272v-.72l-2.988-.252v-17.316l-.18-.108-4.248.36v.756l3.132.252v16.056l-2.988.252v.72zm3.456-22.86c.612 0 1.044-.504 1.044-1.044s-.432-1.044-1.044-1.044c-.612 0-1.044.504-1.044 1.044s.432 1.044 1.044 1.044zm11.484 23.112c1.08 0 2.268-.36 3.024-.792v-.756c-.792.288-1.656.504-2.592.504-2.124 0-3.096-.792-3.096-3.24v-13.176h5.256v-1.08h-5.256v-4.392h-.972l-.252 4.392-2.808.36v.72h2.736v13.464c0 2.916 1.62 3.996 3.96 3.996zm8.784-6.228h.864c-.288-.936-.54-1.98-.54-2.952 0-1.728 1.044-2.736 3.096-4.14 2.52-1.728 4.068-3.24 4.068-6.372 0-4.392-3.096-5.868-6.192-5.868-2.124 0-3.744.468-5.364 1.26v.936c1.764-.72 3.06-1.08 5.076-1.08 2.916 0 5.148 1.188 5.148 4.788 0 2.628-1.26 4.032-3.276 5.4-2.52 1.728-3.6 2.952-3.6 4.896 0 1.26.324 2.34.72 3.132zm.54 6.264c.648 0 1.152-.504 1.152-1.116 0-.612-.504-1.116-1.152-1.116-.648 0-1.152.504-1.152 1.116 0 .612.504 1.116 1.152 1.116zm9.648-19.296h.9c.756-1.764 1.224-3.708 1.368-5.94h-1.548c0 2.196-.252 4.14-.72 5.94z" id="‘Could-we-do-what-Sp" fill="#FFF"/><path d="M2.814 227h1.26l1.344-4.774c.406-1.456.868-3.794.868-3.794h.042s.448 2.338.84 3.794L8.47 227h1.26l2.478-10.094h-1.204l-1.148 4.914c-.35 1.47-.714 3.794-.714 3.794H9.1s-.406-2.282-.798-3.71l-1.386-4.998H5.782l-1.4 4.998c-.406 1.428-.826 3.71-.826 3.71h-.042s-.378-2.324-.728-3.794l-1.148-4.914H.308L2.814 227zm13.65.14c-2.128 0-3.36-1.302-3.36-3.514v-.672c0-2.198 1.344-3.57 3.374-3.57 2.1 0 3.346 1.33 3.346 3.528v.658c0 2.212-1.344 3.57-3.36 3.57zm.028-1.036c1.274 0 2.016-.854 2.016-2.394v-.826c0-1.876-.91-2.45-2.058-2.45-1.302 0-2.044.882-2.044 2.394v.826c0 1.89.938 2.45 2.086 2.45zm4.97.896h1.26v-5.782c.518-.35 1.316-.63 2.002-.63.126 0 .378.014.56.056v-1.148c-.07-.028-.266-.056-.462-.056-.784 0-1.666.462-2.086.966h-.07v-.882h-1.204V227zm7.77.14c-1.414 0-3.038-.812-3.038-3.43v-.616c0-2.604 1.372-3.71 3.276-3.71.882 0 1.484.238 1.876.462v-3.612h1.26V227h-1.064l-.126-.602h-.07c-.434.448-1.134.742-2.114.742zm.406-1.036c.812 0 1.386-.336 1.708-.602v-4.578c-.322-.252-.994-.448-1.722-.448-1.33 0-2.128.63-2.128 2.436v.742c0 1.89.868 2.45 2.142 2.45zm7.042 1.022c1.61 0 2.646-.756 2.646-2.226 0-1.316-.588-1.82-2.03-2.198l-.7-.182c-.742-.196-1.064-.462-1.064-1.064 0-.658.49-.994 1.442-.994.812 0 1.568.224 1.946.392v-1.036c-.42-.21-1.022-.434-2.016-.434-1.764 0-2.576.896-2.576 2.198s.77 1.806 1.834 2.086l.7.182c.896.238 1.218.56 1.218 1.176 0 .644-.476 1.022-1.568 1.022-1.05 0-1.582-.21-2.212-.462v1.022c.616.35 1.428.518 2.38.518zm10.43.07c-.84 0-2.072-.168-2.702-.42v-10.542h1.26v3.752h.07c.56-.35 1.232-.602 2.226-.602 1.372 0 2.856.714 2.856 3.36v.784c0 2.282-1.274 3.668-3.71 3.668zm.098-1.078c1.218 0 2.31-.518 2.31-2.408v-.882c0-1.834-.686-2.352-2.156-2.352-.686 0-1.358.28-1.694.42v4.97c.308.112.798.252 1.54.252zm5.754 3.78c1.26 0 1.89-.574 2.408-2.016l3.024-8.358h-1.26l-1.092 3.234c-.406 1.19-.868 3.024-.868 3.024h-.042s-.434-1.792-.896-3.024l-1.204-3.234H51.66l2.884 7.28-.336.91c-.294.798-.798 1.12-1.47 1.12-.266 0-.532-.028-.714-.056v.896c.21.126.602.224.938.224z" id="Words-by" fill="#999"/><path d="M1.26 248v-10.094h3.136c3.01 0 4.536 1.428 4.536 4.48v.854c0 3.01-1.288 4.76-4.508 4.76H1.26zm1.302-1.134h1.89c2.226 0 3.08-.966 3.08-3.416v-1.064c0-2.59-1.092-3.346-3.248-3.346H2.562v7.826zm11.158 1.274c-2.324 0-3.514-1.4-3.514-3.57v-.63c0-2.464 1.54-3.556 3.234-3.556 2.03 0 2.996 1.176 2.996 3.388v.868h-4.928c.028 1.778.896 2.394 2.408 2.394.994 0 1.624-.21 2.296-.56v.938c-.434.336-1.274.728-2.492.728zm-.336-6.72c-.84 0-1.834.434-1.876 2.184h3.584c0-1.568-.588-2.184-1.708-2.184zm6.664 6.706c1.61 0 2.646-.756 2.646-2.226 0-1.316-.588-1.82-2.03-2.198l-.7-.182c-.742-.196-1.064-.462-1.064-1.064 0-.658.49-.994 1.442-.994.812 0 1.568.224 1.946.392v-1.036c-.42-.21-1.022-.434-2.016-.434-1.764 0-2.576.896-2.576 2.198s.77 1.806 1.834 2.086l.7.182c.896.238 1.218.56 1.218 1.176 0 .644-.476 1.022-1.568 1.022-1.05 0-1.582-.21-2.212-.462v1.022c.616.35 1.428.518 2.38.518zM24.29 248h1.26v-7.476h-1.26V248zm-.042-8.96h1.344v-1.316h-1.344v1.316zm6.048 11.942c-1.022 0-2.114-.238-2.604-.574v-.952c.364.154 1.372.448 2.366.448 1.484 0 2.366-.49 2.366-1.946v-.854h-.07c-.434.42-1.064.7-2.044.7-1.414 0-3.038-.742-3.038-3.262v-.616c0-2.52 1.372-3.542 3.276-3.542.882 0 1.484.308 1.876.574h.07l.126-.434h1.064v7.574c0 2.1-1.232 2.884-3.388 2.884zm.42-4.228c.812 0 1.386-.336 1.708-.602v-4.13c-.322-.266-.994-.532-1.722-.532-1.33 0-2.128.504-2.128 2.254v.742c0 1.82.868 2.268 2.142 2.268zM35.784 248h1.26v-6.02c.532-.238 1.288-.49 1.932-.49 1.162 0 1.442.364 1.442 1.218V248h1.26v-5.558c0-1.442-.686-2.058-2.142-2.058-.896 0-1.862.35-2.478.784h-.07v-.644h-1.204V248zm14.168.196c-.84 0-2.072-.168-2.702-.42v-10.542h1.26v3.752h.07c.56-.35 1.232-.602 2.226-.602 1.372 0 2.856.714 2.856 3.36v.784c0 2.282-1.274 3.668-3.71 3.668zm.098-1.078c1.218 0 2.31-.518 2.31-2.408v-.882c0-1.834-.686-2.352-2.156-2.352-.686 0-1.358.28-1.694.42v4.97c.308.112.798.252 1.54.252zm5.754 3.78c1.26 0 1.89-.574 2.408-2.016l3.024-8.358h-1.26l-1.092 3.234c-.406 1.19-.868 3.024-.868 3.024h-.042s-.434-1.792-.896-3.024l-1.204-3.234h-1.372l2.884 7.28-.336.91c-.294.798-.798 1.12-1.47 1.12-.266 0-.532-.028-.714-.056v.896c.21.126.602.224.938.224z" id="Design-by" fill="#999"/><path d="M63.26 227v-10.094h3.038c2.184 0 3.22.98 3.22 2.87 0 1.442-.714 2.212-1.876 2.632v.084l2.59 4.508h-1.484l-2.408-4.312h-1.778V227H63.26zm1.302-5.32h1.652c1.442 0 1.904-.588 1.904-1.876 0-1.26-.49-1.778-1.918-1.778h-1.638v3.654zm10.178 5.46c-2.324 0-3.514-1.4-3.514-3.57v-.63c0-2.464 1.54-3.556 3.234-3.556 2.03 0 2.996 1.176 2.996 3.388v.868h-4.928c.028 1.778.896 2.394 2.408 2.394.994 0 1.624-.21 2.296-.56v.938c-.434.336-1.274.728-2.492.728zm-.336-6.72c-.84 0-1.834.434-1.876 2.184h3.584c0-1.568-.588-2.184-1.708-2.184zm7.392 6.776c-.84 0-2.072-.168-2.702-.42v-10.542h1.26v3.752h.07c.56-.35 1.232-.602 2.226-.602 1.372 0 2.856.714 2.856 3.36v.784c0 2.282-1.274 3.668-3.71 3.668zm.098-1.078c1.218 0 2.31-.518 2.31-2.408v-.882c0-1.834-.686-2.352-2.156-2.352-.686 0-1.358.28-1.694.42v4.97c.308.112.798.252 1.54.252zm8.344 1.022c-2.324 0-3.514-1.4-3.514-3.57v-.63c0-2.464 1.54-3.556 3.234-3.556 2.03 0 2.996 1.176 2.996 3.388v.868h-4.928c.028 1.778.896 2.394 2.408 2.394.994 0 1.624-.21 2.296-.56v.938c-.434.336-1.274.728-2.492.728zm-.336-6.72c-.84 0-1.834.434-1.876 2.184h3.584c0-1.568-.588-2.184-1.708-2.184zm7.658 6.72c1.022 0 1.68-.266 2.17-.588v-1.022c-.378.182-1.036.518-2.03.518-1.498 0-2.268-.672-2.268-2.45v-.812c0-1.554.812-2.31 2.114-2.31.966 0 1.428.196 2.086.462v-1.064c-.476-.294-1.036-.49-2.002-.49-1.932 0-3.5 1.092-3.5 3.598v.658c0 2.366 1.33 3.5 3.43 3.5zm6.58 0c1.022 0 1.68-.266 2.17-.588v-1.022c-.378.182-1.036.518-2.03.518-1.498 0-2.268-.672-2.268-2.45v-.812c0-1.554.812-2.31 2.114-2.31.966 0 1.428.196 2.086.462v-1.064c-.476-.294-1.036-.49-2.002-.49-1.932 0-3.5 1.092-3.5 3.598v.658c0 2.366 1.33 3.5 3.43 3.5zm5.418 0c-1.33 0-2.282-.672-2.282-2.114 0-1.302.798-2.002 2.226-2.17l1.946-.224v-.728c0-1.134-.49-1.414-1.806-1.414-.714 0-1.302.112-1.75.224v-.924c.658-.266 1.358-.406 2.254-.406 1.638 0 2.562.7 2.562 2.198V227H111.7l-.14-.63h-.084c-.35.42-.952.77-1.918.77zm.322-.98c.63 0 1.26-.224 1.568-.518v-2.058l-1.624.168c-.812.084-1.246.42-1.246 1.232 0 .798.518 1.176 1.302 1.176zm8.624.84h1.19v-5.348c0-1.358-.14-3.486-.14-3.486h.042s.91 1.932 1.596 3.122l3.29 5.712h1.358v-10.094h-1.19v4.83c0 1.4.14 3.584.14 3.584h-.042s-.938-1.932-1.624-3.122l-3.08-5.292h-1.54V227zm9.688 0h1.26v-7.476h-1.26V227zm-.042-8.96h1.344v-1.316h-1.344v1.316zm6.412 9.1c1.022 0 1.68-.266 2.17-.588v-1.022c-.378.182-1.036.518-2.03.518-1.498 0-2.268-.672-2.268-2.45v-.812c0-1.554.812-2.31 2.114-2.31.966 0 1.428.196 2.086.462v-1.064c-.476-.294-1.036-.49-2.002-.49-1.932 0-3.5 1.092-3.5 3.598v.658c0 2.366 1.33 3.5 3.43 3.5zm3.612-.14h1.26v-6.02c.532-.238 1.288-.49 1.932-.49 1.162 0 1.442.364 1.442 1.218V227h1.26v-5.558c0-1.442-.686-2.058-2.142-2.058-.896 0-1.82.336-2.422.756h-.07v-3.906h-1.26V227zm10.836.14c-2.128 0-3.36-1.302-3.36-3.514v-.672c0-2.198 1.344-3.57 3.374-3.57 2.1 0 3.346 1.33 3.346 3.528v.658c0 2.212-1.344 3.57-3.36 3.57zm.028-1.036c1.274 0 2.016-.854 2.016-2.394v-.826c0-1.876-.91-2.45-2.058-2.45-1.302 0-2.044.882-2.044 2.394v.826c0 1.89.938 2.45 2.086 2.45zm6.706.98c.616 0 .896-.14 1.19-.266v-.896c-.294.07-.616.112-.854.112-.504 0-.756-.168-.756-.882v-8.918h-1.274v9.072c0 1.33.672 1.778 1.694 1.778zm4.438.042c1.61 0 2.646-.756 2.646-2.226 0-1.316-.588-1.82-2.03-2.198l-.7-.182c-.742-.196-1.064-.462-1.064-1.064 0-.658.49-.994 1.442-.994.812 0 1.568.224 1.946.392v-1.036c-.42-.21-1.022-.434-2.016-.434-1.764 0-2.576.896-2.576 2.198s.77 1.806 1.834 2.086l.7.182c.896.238 1.218.56 1.218 1.176 0 .644-.476 1.022-1.568 1.022-1.05 0-1.582-.21-2.212-.462v1.022c.616.35 1.428.518 2.38.518zm7.098.014c-2.128 0-3.36-1.302-3.36-3.514v-.672c0-2.198 1.344-3.57 3.374-3.57 2.1 0 3.346 1.33 3.346 3.528v.658c0 2.212-1.344 3.57-3.36 3.57zm.028-1.036c1.274 0 2.016-.854 2.016-2.394v-.826c0-1.876-.91-2.45-2.058-2.45-1.302 0-2.044.882-2.044 2.394v.826c0 1.89.938 2.45 2.086 2.45zm4.97.896h1.26v-6.02c.532-.238 1.288-.49 1.932-.49 1.162 0 1.442.364 1.442 1.218V227h1.26v-5.558c0-1.442-.686-2.058-2.142-2.058-.896 0-1.862.35-2.478.784h-.07v-.644h-1.204V227z" id="Rebecca-Nicholson" fill="#FFF"/><path d="M66.26 248h1.302v-4.452h3.444v-1.12h-3.444v-3.402h4.466v-1.12H66.26V248zm7.406 0h1.26v-5.782c.518-.35 1.316-.63 2.002-.63.126 0 .378.014.56.056v-1.148c-.07-.028-.266-.056-.462-.056-.784 0-1.666.462-2.086.966h-.07v-.882h-1.204V248zm6.958.14c-1.33 0-2.282-.672-2.282-2.114 0-1.302.798-2.002 2.226-2.17l1.946-.224v-.728c0-1.134-.49-1.414-1.806-1.414-.714 0-1.302.112-1.75.224v-.924c.658-.266 1.358-.406 2.254-.406 1.638 0 2.562.7 2.562 2.198V248h-1.008l-.14-.63h-.084c-.35.42-.952.77-1.918.77zm.322-.98c.63 0 1.26-.224 1.568-.518v-2.058l-1.624.168c-.812.084-1.246.42-1.246 1.232 0 .798.518 1.176 1.302 1.176zm4.886.84h1.26v-6.02c.532-.238 1.288-.49 1.932-.49 1.162 0 1.442.364 1.442 1.218V248h1.26v-5.558c0-1.442-.686-2.058-2.142-2.058-.896 0-1.862.35-2.478.784h-.07v-.644h-1.204V248zm7.938 0h1.26v-10.766h-1.26V248zm4.354 0h1.456l-2.828-3.948 2.59-3.528h-1.358l-2.618 3.612L98.124 248zm6.524 0h1.302v-4.662h4.788V248h1.302v-10.094h-1.302v4.312h-4.788v-4.312h-1.302V248zm11.9.14c.91 0 1.652-.35 2.268-.784h.084l.126.644h1.078v-7.476h-1.274v5.978c-.518.28-1.148.532-1.904.532-1.064 0-1.358-.378-1.358-1.288v-5.222h-1.26v5.418c0 1.442.798 2.198 2.24 2.198zm7.378-.056c.616 0 .896-.14 1.19-.266v-.896c-.294.07-.616.112-.854.112-.504 0-.756-.168-.756-.882v-8.918h-1.274v9.072c0 1.33.672 1.778 1.694 1.778zm4.2 0c.616 0 .896-.14 1.19-.266v-.896c-.294.07-.616.112-.854.112-.504 0-.756-.168-.756-.882v-8.918h-1.274v9.072c0 1.33.672 1.778 1.694 1.778zm5.516.056c-2.324 0-3.514-1.4-3.514-3.57v-.63c0-2.464 1.54-3.556 3.234-3.556 2.03 0 2.996 1.176 2.996 3.388v.868h-4.928c.028 1.778.896 2.394 2.408 2.394.994 0 1.624-.21 2.296-.56v.938c-.434.336-1.274.728-2.492.728zm-.336-6.72c-.84 0-1.834.434-1.876 2.184h3.584c0-1.568-.588-2.184-1.708-2.184zm5.152 9.478c1.26 0 1.89-.574 2.408-2.016l3.024-8.358h-1.26l-1.092 3.234c-.406 1.19-.868 3.024-.868 3.024h-.042s-.434-1.792-.896-3.024l-1.204-3.234h-1.372l2.884 7.28-.336.91c-.294.798-.798 1.12-1.47 1.12-.266 0-.532-.028-.714-.056v.896c.21.126.602.224.938.224zm6.692-6.51h3.752v-1.106h-3.752v1.106zm7.364 3.71c1.932 0 2.73-1.204 2.73-2.716v-7.476h-1.316v7.434c0 1.036-.434 1.624-1.526 1.624-.756 0-1.344-.154-1.792-.322v1.064c.546.266 1.078.392 1.904.392zm7.868.042c-2.128 0-3.36-1.302-3.36-3.514v-.672c0-2.198 1.344-3.57 3.374-3.57 2.1 0 3.346 1.33 3.346 3.528v.658c0 2.212-1.344 3.57-3.36 3.57zm.028-1.036c1.274 0 2.016-.854 2.016-2.394v-.826c0-1.876-.91-2.45-2.058-2.45-1.302 0-2.044.882-2.044 2.394v.826c0 1.89.938 2.45 2.086 2.45zm4.97.896h1.26v-6.02c.532-.238 1.288-.49 1.932-.49 1.162 0 1.442.364 1.442 1.218V248h1.26v-5.558c0-1.442-.686-2.058-2.142-2.058-.896 0-1.862.35-2.478.784h-.07v-.644h-1.204V248zm10.99.14c-2.324 0-3.514-1.4-3.514-3.57v-.63c0-2.464 1.54-3.556 3.234-3.556 2.03 0 2.996 1.176 2.996 3.388v.868h-4.928c.028 1.778.896 2.394 2.408 2.394.994 0 1.624-.21 2.296-.56v.938c-.434.336-1.274.728-2.492.728zm-.336-6.72c-.84 0-1.834.434-1.876 2.184h3.584c0-1.568-.588-2.184-1.708-2.184zm6.664 6.706c1.61 0 2.646-.756 2.646-2.226 0-1.316-.588-1.82-2.03-2.198l-.7-.182c-.742-.196-1.064-.462-1.064-1.064 0-.658.49-.994 1.442-.994.812 0 1.568.224 1.946.392v-1.036c-.42-.21-1.022-.434-2.016-.434-1.764 0-2.576.896-2.576 2.198s.77 1.806 1.834 2.086l.7.182c.896.238 1.218.56 1.218 1.176 0 .644-.476 1.022-1.568 1.022-1.05 0-1.582-.21-2.212-.462v1.022c.616.35 1.428.518 2.38.518z" id="Frank-Hulley-Jones" fill="#FFF"/><g id="Rectangle-2"><use fill="#E20B17" xlink:href="#path-1"/><path stroke="#E20B17" d="M.5 209.5h79v1H.5z"/></g></g></g></g></svg>