<?xml version="1.0" encoding="UTF-8"?>
<svg width="50px" height="34px" viewBox="0 0 50 34" version="1.1" xmlns="http://www.w3.org/2000/svg" xmlns:xlink="http://www.w3.org/1999/xlink">
    <!-- Generator: Sketch 47 (45396) - http://www.bohemiancoding.com/sketch -->
    <title>"</title>
    <desc>Created with Sketch.</desc>
    <defs></defs>
    <g id="Page-1" stroke="none" stroke-width="1" fill="none" fill-rule="evenodd">
        <g id="&quot;" fill="#E20B17">
            <g id="Page-1" transform="translate(-1.000000, 0.000000)">
                <path d="M39.5902968,-0.000107142857 C32.2979213,-0.000107142857 26.466951,4.17899907 24.1118543,10.5190805 C22.9251493,9.581437 21.5626362,8.84524037 20.0865803,8.3690933 C21.009573,8.01015166 21.786059,7.29959373 22.1706394,6.36561293 C22.7383532,4.99577444 22.4929543,3.4244891 21.4454307,2.37330287 L20.145183,1.0730551 C19.4602637,0.384473184 18.5299456,-0.000107142857 17.5556754,-0.000107142857 C8.09866207,-0.000107142857 1.13592682,6.98094146 1.00040803,16.602775 C0.868551922,26.2209458 7.13171724,33.0701383 16.2334516,33.2569344 L16.4825132,33.2569344 C20.632318,33.2569344 24.3462652,31.1032846 26.6244458,27.8215325 C26.7233379,27.9387379 26.82223,28.0559434 26.9247847,28.1731488 C29.7047511,31.3596715 33.7336878,33.1653677 38.2644104,33.2569344 L38.5171346,33.2569344 C45.2601096,33.2569344 50.8566691,27.5688083 50.9958505,20.573109 C51.1093933,14.9142842 47.3661448,10.0392707 42.1321896,8.36176796 C43.0515198,8.00282632 43.8206804,7.29593106 44.2052607,6.36561293 C44.7729746,4.99577444 44.5275757,3.4244891 43.4800521,2.37330287 L42.183467,1.0730551 C41.4948851,0.384473184 40.564567,-0.000107142857 39.5902968,-0.000107142857 M17.5556754,3.66256264 L18.8522605,4.96281041 L18.7204044,4.96281041 C14.1274165,4.96281041 9.90802094,7.55598061 9.81279152,12.1086791 C9.81279152,12.7569717 9.91168361,13.507819 9.91168361,14.1048342 C11.6184877,12.3980301 13.5633654,11.4054465 16.1162462,11.4054465 C16.1785116,11.4054465 16.2444397,11.4054465 16.306705,11.4091092 C21.2513092,11.5080013 25.3498367,15.503974 25.2985593,20.5035183 C25.2033299,25.4847492 21.3465387,29.5942647 16.4825132,29.5942647 L16.306705,29.5942647 C8.96305213,29.4440952 4.56418573,23.8511985 4.66307781,16.6540523 C4.76563257,9.4605689 9.81279152,3.66256264 17.5556754,3.66256264 M39.5902968,3.66256264 L40.8868819,4.96281041 L40.7550258,4.96281041 C36.1583752,4.96281041 31.8437502,7.55598061 31.7961355,12.1086791 C31.7961355,12.7569717 31.8437502,13.507819 31.946305,14.1048342 C33.6018317,12.3980301 35.5943241,11.4054465 38.1508676,11.4054465 C38.213133,11.4054465 38.279061,11.4054465 38.3413264,11.4091092 C43.2895933,11.5080013 47.4357355,15.503974 47.3331807,20.5035183 C47.2342886,25.4847492 43.38116,29.5942647 38.5171346,29.5942647 L38.3413264,29.5942647 C30.9940109,29.4440952 26.499915,23.8511985 26.6500845,16.6540523 C26.800254,9.4605689 31.7961355,3.66256264 39.5902968,3.66256264" id="Fill-1"></path>
            </g>
        </g>
    </g>
</svg>