<?xml version="1.0" encoding="UTF-8"?>
<svg width="175px" height="126px" viewBox="0 0 175 126" version="1.1" xmlns="http://www.w3.org/2000/svg" xmlns:xlink="http://www.w3.org/1999/xlink">
    <!-- Generator: Sketch 47 (45396) - http://www.bohemiancoding.com/sketch -->
    <title>Page 1</title>
    <desc>Created with Sketch.</desc>
    <defs></defs>
    <g id="Page-1" stroke="none" stroke-width="1" fill="none" fill-rule="evenodd">
        <g id="W" fill="#E20F1A">
            <path d="M128.502514,0 L128.502514,16.0273302 L139.890488,20.4357026 L129.186696,78.5829594 L110.822432,0 L77.2695419,0 L60.2004905,77.8141444 L49.8560021,20.3607485 L60.2843997,15.95773 L60.2843997,0 L0,0 L0,15.7317969 L8.77173031,20.5245768 L32.8159962,126 L72.7685707,126 L88.0497123,58.4706302 L102.190551,126 L143.377019,126 L165.589269,20.5695493 L175,15.7992556 L175,0 L128.502514,0 Z M132.612985,95.6157455 L147.200263,16.3721191 L134.955986,11.6339486 L134.955986,6.42463798 L168.545452,6.42463798 L168.545452,11.8609525 L159.904964,16.240414 L138.134851,119.575362 L107.439174,119.575362 L91.1909255,41.9828676 L85.1645295,41.9828676 L67.6049325,119.575362 L37.9710283,119.575362 L14.4237626,16.283245 L6.45454769,11.9294819 L6.45454769,6.42463798 L53.829852,6.42463798 L53.829852,11.7035488 L42.594636,16.448144 L56.8183076,95.452988 L62.9382945,95.452988 L82.4676043,6.42463798 L105.697521,6.42463798 L126.541407,95.6157455 L132.612985,95.6157455 Z" id="Page-1"></path>
        </g>
    </g>
</svg>